<svg width="80px" height="30px" viewBox="0 0 80 30"
     xmlns="http://www.w3.org/2000/svg">
<defs>
  <path
    id="jack1"
    d="M240 1212l8 -0.000976562v-8l4 8h324l-40 -84l24 -76l-24 -16l-8 -20v-40l-12 -12h-24l8 -12l80 -44l4 8v-16l40 -20v32l20 -4v8l-16 4v16l36 4l-16 -12l4 -4l-8 -44l-16 4l44 -36l36 -20v-164l-108 76l104 -92l-12 4v-8h-8l-28 24l4 -16l-8 -4l-8 8v16l-20 -8l-8 4
    l12 16l-32 12l16 4l-4 8l-24 8v16h8l-28 28h-8l4 -28l40 -64l60 -36l44 -8l4 -36l-36 8v-12l12 -8l24 -44v-172l-128 -60l8 8l-60 48l-40 104l-4 104l-292 -4l-24 20l-4 32l-8 12l-44 16v44l-40 40l16 60l-20 24l8 32h-20l-12 -32l20 -20l4 -20l-20 -32v-16l12 -20
    c20 -5.33301 30.667 -18.666 32 -39.999v-32l52 -28l20 -52h20v8l4 -12h52v-292l92 -28l12 12l-16 -20l-52 20l-72 12l-16 -8v-36l16 8l-32 -40l-20 -12l4 16h12l12 12v48l8 12l32 4l-72 48l8 12l28 180l-20 -60l-24 -124h-12l-40 28l-8 -48l-20 4l4 8l16 -4v12l-16 -4l-8 8
    h8v24l12 -4l4 8l-20 4c-1.33301 10.667 -8 17.334 -20 20.001l-36 24l-4 168l152 -116l4 8l-152 120l16 -4v8h8l28 -28l-4 24l12 -8l4 -20l12 4l4 12h8v-16h-8v-12h28v-8l-12 -4l28 -28l-8 -8l16 -16l20 -8v16l-40 68l-52 40l-64 12v40l36 -12l4 12l-36 52l-4 168l124 60
    c3.33301 -10.667 11.333 -17.334 24 -20.001l16 -12l40 -56l16 -72v-96l300 -4v20l-40 -4l-12 272l4 24l-80 24h-20l-8 -20l-16 -8l-56 4l-4 -296h-52v140l-16 56l-24 40l-32 32l48 20l-8 36l8 12l28 4l-4 88l16 -60l16 -4l-8 72l16 48h-16l-8 -16l-12 68v8zM256 1176
    h140.001l-60 20l-4 -8l-44 -8c-14.667 0.666992 -25.334 8.66699 -32.001 24v-28zM444.001 1200l-16 -8l4 -8l-8 4l-12 -8l60 -4l-12 8h-20v8l36 -4l4 8h-16zM484.001 1192l-4 -16h32l4 8l-16 -4c-4 6 -9.33301 10 -16 12zM536.001 1176h16v8l-16 4v-12zM520.001 1184v-8
    l12 4zM652.001 1168l24 -24v-16l-20 -52l12 44v32l-28 20l-16 -4l-20 -16l8 16l20 4zM400.001 1152l-12 -31.999l4 -40h20l12 -12v-20l-4 16l-24 12l-4 -28l-8 12l4 92h-20l-8 -36v-40c1.33301 -20.667 12 -35.334 32 -44.001l-24 -4l4 12l-12 16l-8 28l4 68h-16l-12 -56
    l16 -56l20 -16l-24 8l-52 -8v-24l-12 -12l8 -20h12l12 52v-52h12v28l8 4l-8 8l12 12l-4 -16l20 4v-12l-16 4l-8 -20l8 -12h20l28 52v-20l108 -32l32 4v36h-12v12l44 28l-4 24l-20 44l12 36h-140zM284.001 1152l-12 -36v-52l12 -32h20l-16 44l12 76h-16zM308.001 1152l-8 -36
    v-56l20 -28l20 4l-16 28l8 88h-24zM652.001 1140v-16c-10 -8 -15.333 -20 -16 -36l-20 -40v28l-16 48l24 -24c6.66699 0 10.667 6.66699 12 20l-16 8l4 20h12zM528.001 1148l-8 -16l-60 -8l4 12l56 8zM516.001 1092h-28l-12 8l40 20v-28zM616.001 1100v-16l12 -4l-4 20h-8z
    M648.001 1072l28 -79.999l-20 -32h36l4 -12l-24 -8l4 8l-84 4v8h20v8l-8 4l4 4l16 -12l20 -4c12.667 5.33301 20.667 14.666 24 27.999l4 4l-16 32l-20 4l-4 -16l20 -12l-4 -20l-32 4l24 72zM644.001 1052l-4 -16l16 -4l-4 20h-8zM480.001 1032l40 8l-4 -8l-32 -8l-12 16
    l8 8v-16zM252.001 1028l-8 -28l-12 -8v-16l8 -8l24 56zM272.001 1028l-20 -48l8 -12h8l16 52l-4 8h-8zM208.001 996.001v-20l16 -8l4 32zM628.001 1000c0 -6.66699 4 -10.667 12 -12v12h-12zM460.001 944.001l-4 -264l-24 -12l16 28l-4 12h-12l-4 -36l-40 -4v52h-16l-4 -44
    l8 -8l-68 4l-4 276l72 -16l76 16zM228.001 904.001l8 -12l32 12v16l-32 16zM420.001 912.001h-80l-28 8l8 -12l104 -4l28 12v8zM500.001 912.001l-4 -20l36 -8l4 16l-12 24h-12zM560.001 912.001l-36 -212l4 -12l40 220zM584.001 892.001l-4 -12l12 -4v16h-8z
    M600.001 864.001l12 -4l8 12l-8 -4v8l-12 4v-16zM424.001 876.001l3.99902 -12l-16 8l-84 -4l8 -12h-8v-112h8v16l16 -4v-8h20v8l-12 4h12v8h-12l12 12h-12c-9.33301 4 -14.666 12 -15.999 24l-12 -4v12h16l-16 4v8h12l8 -8l8 16l-16 4h28v8l-12 -4v8l16 4l-36 4l8 8l72 -4
    l-4 -12h16v28h-8zM56 872.001l-20 -16h12l4 8l48 -12l28 -16l-12 12h20l-8 8h-28l4 12h-12l4 -8l-12 -4l4 16h-32zM256 856.001l-8 -31.999h32v16c-8.66699 9.33301 -16.667 14.666 -24 15.999zM380 856.002l20 -8v8h-20zM624 856.002v-8h24l-8 -8h12l4 -8l16 4l-16 16h-24z
    M140 848.002l-12 -4l12 -8v12zM496 832.002v-20l28 4l-8 32h-8zM32 832.002h-7.99902v-84l12 -4h-8l4 -32l8 32l12 12v20c-2.66699 12.667 -9.33398 22 -20.001 28l8 36l-8 4v-12zM396.001 836.002h16v8h-20zM416.001 836.002l8 -8l-16 4l12 -16l16 12h-8l4 16h-12z
    M380.001 840.002v-8l-24 -20v-20l16 -4l4 8l32 -8l8 12l-4 12c-6 12.667 -16.667 22 -32 28zM84.001 836.002l-12 -20l20 -32l8 4v16h-8l-12 20c8.66699 6.66699 10 10.667 4 12zM568.001 832.002v-12l12 4zM664.001 832.002l8 -12h12v12l-8 -4zM112.001 828.002l-4 -68
    l16 -60l48 -68l24 -16v20l-8 4l8 24l-24 -8l-4 16l16 16l-28 -8l-4 16l16 16l-28 -4v12l16 12h-20v12l16 12h-20l-4 16l20 4l-24 20l16 8l-12 12v8c-2.66699 2.66699 -8 4 -16 4zM140.001 828.002c3.33301 -10.667 11.333 -17.333 24 -20v8h-12v12h-12zM424.001 816.003
    l-4 -28l12 12v16h-8zM160.001 804.003l20 -24v24l-12 -4zM600.001 804.003v-8h12l4 -12l8 12v-16l56 -36l8 16l-12 -8v16h-16l-28 12l12 4l-4 8l-8 -4v12l-24 4h-8zM560.001 800.003l-4 -20l32 -20l4 20c-15.333 12 -26 18.667 -32 20zM336.001 776.003l12 -8v8h8v-8h-8
    l-16 20zM24.001 788.003l20 -4l4 -20h-12l-8 -12l-4 28v8zM100.001 784.003l-20 -60l8 -4v16h16v8l-8 -4v8zM392.001 780.003l4 -24l-20 -4l24 -4v12h8l-4 -12h28l-4 32h-12l8 -12l-20 -4l-4 12zM652.001 772.003h16l-20 8zM260.001 776.003l-4 -24h20l-4 24h-12z
    M488.001 752.003l4 -8h24v12l-12 16zM184.001 768.003l12 -32l-4 32h-8zM600.001 768.003l-4 -16l20 -12l4 20l-8 8h-12zM628.001 748.003v-20l8 -8l8 4v20zM656.001 732.003v-28h8l4 20zM92.001 720.003l24 -24v12l-12 8l4 12zM196.001 728.003l12 -44l-4 44h-8z
    M340.001 728.003v-40l12 -8l8 48h-20zM400.001 728.003c0.666992 -28.667 6 -43.333 16 -44v32l8 4v8h-24zM676.001 716.004l-4 -24l12 -4v28h-8zM320.001 712.004l-4 -32l16 -8l-4 40h-8zM36.001 704.004l12 -44l4 44h-16zM260.001 704.004v-16l16 4l-4 12h-12z
    M496.001 704.004l-4 -16h12v16h-8zM696.001 700.004l-4 -24h8l4 24h-8zM60.001 692.004l-4 -12l16 -4v-12l12 4c-2.66699 11.333 -10.667 19.333 -24 24zM120.001 692.004v-32l16 4l-12 20zM532.001 668.004l-8 -20l16 -8l12 -44l24 -12h16l8 -16l4 -48l36 -36l-16 -44
    l20 -56l-12 -12l20 -4c10.667 10.667 16 24 16 40l-24 28l20 60c-4 10.667 -13.333 18.667 -28 24l-12 12v44c-4 14 -14.667 23.333 -32 28c-18.667 3.33301 -28 15.333 -28 36c-3.33301 16.667 -14 26 -32 28zM564.001 660.004h12l-12 -8l20 -4v12l-8 8h-16z
    M68.001 660.004l-12 -12l4 -12h12l-4 -12h8v20l-12 -4l4 12l8 -8l4 12zM132.001 636.004l28 -4l-20 12zM208.001 644.004v-8h124l4 8h-128zM524.001 640.004l4 -16l12 4l-4 8zM608.001 636.004l-4 -20h-8l20 -8v16zM80.001 608.004h12l-4 20zM96.001 612.004v-16h32v8z
    M172.001 604.004v-20h8v12h12v8h-20zM616.001 604.004l12 -8v-24l20 -4v12l-12 4v20h-20zM512.001 600.004v-15.999l12 -8l-8 -24l24 8l4 -12l-16 -16l8 -4l20 8l4 -12l-16 -12v-8l28 4l-20 -24h24l4 -12l-16 -4l-4 -8l24 -4c-3.33301 -10 -11.333 -15.333 -24 -16l20 -12
    l4 -12l-12 -4l24 -28l4 72l-8 48l-12 28l-44 52c-4 9.33301 -12 14.666 -24 15.999zM108.001 580.005v-8h16l-4 -12l20 -4l-4 -12l16 8h-8v12l-16 8l12 -4v12l-24 -4zM572.001 560.005v8l12 4l-24 8zM632.001 568.005v-28l44 -36l-4 28l-8 -4v20h-8l4 -8h-24v16l16 4l-12 4z
    M264.001 548.005l136 -4l8 -12v-264l-64 16l-52 -4l-40 -12v24l44 8h88l20 -8v8l-80 16l-60 -12l-12 -8v240zM268.001 536.005l-4 -24l16 -4l4 36zM320.001 544.005l4 -52l16 4v48h-20zM424.001 548.005h51.999v-148l24 -60l20 -32l24 -20l16 4l-56 -28l-8 -12l12 -8v-16
    l-16 20l-8 -4v-16l-20 -44l12 -16v-56c-4 1.33301 -6.66699 20 -8 56l-16 16h-12l12 -52l-4 -32l-16 -36h12l16 16l-4 -20l16 -60l-340 4l40 84l-4 36l8 -4l4 -28l-8 -28h140l12 52v-52h16l8 28v56l8 -4v-80h16v104l-28 24l116 -4l20 40
    c-1.33301 10 -6.66602 16.667 -15.999 20v-20l-20 -32l4 24l8 4v20l-16 4l-4 -36l-16 -12l8 12v36h-16l-4 -32h-8l8 20c-4 8 -10.667 12 -20 12l4 -20l-12 -16h-20v20l4 -16h12l8 8l-8 24h-16l8 8h56v292zM12 540.005l-4 -20l8 -4l4 20zM156 532.005l12 -4v12h-8z
    M380 540.005v-32l12 -4l4 24l-8 12h-8zM588 520.005l8 4l-8 16v-20zM212 532.005l-4 -16l8 -4l8 16zM296 532.005v-28l-8 -16h16v44h-8zM356 532.005v-32l-8 -12h16l4 44h-12zM28 528.005l-4 -24l8 -4l8 24zM440 528.005l4 -16l12 4v12h-16zM608 500.005h-8l4 -20l4 16h12
    l4 -20h-12v-72h24l-20 44l4 20l12 16l-32 28zM48 512.005l-4 -20l12 -8v28h-8zM668 500.005l4 -23.999l-8 -8l16 -4l-16 -12h20v-20h-12c-7.33301 1.33301 -11.333 6.66602 -12 15.999l-4 -16l24 -24v-24l-8 -4l12 -4v120c-2.66699 2.66699 -8 4 -16 4zM68 496.006v-24
    l12 -4l4 20l-8 8h-8zM92 476.006v-24l16 -8l4 24l-8 8h-12zM204 448.006h12l8 24l-20 4v-28zM276 400.006h16v28l8 8h16v8h-20v12h52l-8 8l-56 -4v12h-8v-72zM436 464.006l8 -24h8v8l8 4l-4 16zM44 460.006v-20l12 16zM352 460.006l4 -12l-16 4v-8l20 -4v12l12 4h-8z
    M124 456.006l-4 -24l32 -20l4 16l-28 24zM60 452.006v-12h12l-8 -12h16l4 8h-8zM368 448.006v-32h16v28c-2.66699 2.66699 -8 4 -16 4zM296 420.006l8 -28l12 -4l4 -12l24 12l4 12l8 4v20l-24 -4l-28 8zM88 412.006l20 4l-12 8l-8 -4v-8zM548 416.006l-12 -16h24l-4 4z
    M104 408.006l12 -8v8h-12zM360 400.006h12l-16 -4v-12l-16 -4l32 -4l-8 -8l-20 4l-16 -12h-16l8 4v8h-8c-0.666992 10.667 -8.66699 16 -24 16l12 4l-20 4l-4 -56h16l8 8l-16 4h84l4 -8h-16l28 -4v20l-16 4h16l-8 4l8 16h-12l4 8l8 -4v8l-8 4h8v8h-20zM188 396.006l8 -24
    l16 4l8 24l-28 4zM32 400.006l-8 -16h8l4 -8h16v12l-12 -8v16zM436 396.006l-4 -12l20 -24l16 32l-8 8zM136 392.006l8 -8v8h-8zM564 372.006l8 -4v12l16 -4v-8h-12l28 -16h24v-8l20 8l4 8l-24 4l-8 -8l-36 28h-20v-12zM308 376.006l-4 -8l-20 4l8 8zM72 372.006l8 -24h12
    l-4 16l-8 -8l4 12zM652 352.006l24 8h-20zM16 360.006h8l-8 -24l8 -4l-8 -4v-12l8 -4l-8 -16l20 -4l-20 -12v-8l24 4l-4 -8l12 -4v-8l-28 4l-8 16v76zM96 348.006c2.66699 -10 12 -18 28 -24l4 16l-24 4zM180 332.006v-20l12 -20l16 8v8l8 4v16l-16 4h-20zM332 324.006h16
    l-4 8h-16zM260 320.006v-8l32 12zM448 316.006l-4 -16l36 -20l-8 44zM60 284.006l12 -4l-24 -4zM120 260.006l-20 -4l8 -16l-16 12l-28 4l-24 -24l4 -28l16 -16l16 4v16h-12l-4 20l20 8l12 -16l-28 -68l-8 8l-20 60l16 40h68zM68 220.006l12 -4v12h-8zM108 216.006v-19.999
    l-16 -52l20 -56l-16 24l-20 4l-4 -16l12 -4l8 -20l-16 -12l-16 16c31.333 77.333 47.333 122.666 48 135.999zM52 188.007l4 -20h12v16zM216 192.007c10.667 -0.666992 17.333 -6 20 -16l-8 -4l4 12l-40 -8v8l24 4v4zM403.999 180.007l12 -28l4 -52l-12 -36l20 4l16 52v32
    c-4 18 -14.667 30 -32 36zM339.999 188.007l-4 -12l-8 8zM375.999 184.007l-3.99902 -12c9.33301 -9.33301 14.666 -24 15.999 -44l-8 -64h20l8 24l-4 80l-8 12zM80 124.007l16 -8l-4 24zM216 124.007l-4 -12h12v8h8l4 -12l-48 -12l12 32zM44 64.0068l16 -16h-8l-16 24l8 32
    v-40zM252 88.0068l-16 -12l-52 -4l12 16h48l4 8zM68 88.0068v-12h12v12h-12zM108 76.0068l4.00098 -11.999l-20 -16c7.33301 5.33301 12.666 14.666 15.999 27.999zM160.001 40.0078l-4 -12h60l32 -12l32 8v8l20 4l-84 4h-56zM316.001 32.0078l24 -4l12 12h-32z
    M356.001 40.0078l4 -12h-16l4 -8l32 4l-16 4v12h-8zM368.001 32.0078l48 4l-44 4zM436.001 36.0078l20 -20v20l-16 4z"
  />
  <path
    id="jack2"
    d="M160 1216l59.999 -23.998l92 12l60 -20l32 16l60 -16c17.333 2 29.333 12.667 36 32v-20l-20 -16l-80 12l-20 -12l-48 4l-12 12l-36 4l-36 -16l-72 16l16 -28l40 -8h260l12 24l-12 -36l24 -72l-28 64l-20 4l28 -84l8 -48l-40 128l-20 4l-4 -8l-4 8h-20l8 -24l-12 24h-24
    v-8l-28 8l16 -56l-12 20c-0.666992 23.333 -12.667 36.666 -36 39.999l-112 -4l8 -48l36 4l12 -8v20l-36 8l-8 8l20 4l28 -12l4 -20l-8 -32l-4 8h-36v-64h8v-8l12 -4l-16 -8l16 -44l16 -24l64 8l80 56l-24 64l20 -44l32 -32l-32 108l28 -80
    c3.33301 -16.667 14 -31.334 32 -44.001l12 -4l-32 56l-12 72l28 -96c8 -24 22.667 -37.333 44 -40h8l-8 8l4 4l4 -8h48l16 28l4 -8l-20 -28l52 -24l4 8l4 -48h8v112h32v-112h8v100l4 -100h12l-4 248h-8l-24 20l-12 -12c-11.333 -2.66699 -18 -10.667 -20 -24l-4 12l32 28
    l28 -12l16 -16v-244l12 -4v-40l-12 -12v-20l12 12v-8l-12 -12l4 -372l8 -12l-8 8l-4 -20l8 -4l4 -44l-8 4v-36l8 4l-12 -12v-28l-36 -24l-20 8h28l16 12l4 504l-8 -4v-484l-20 -20l-20 8l-4 504l-8 4v-72l-8 4l-64 -88v-60l60 -84h8l-4 24l-12 8l-36 52v52l32 56l24 28
    l4 -440h-20l-60 -32l-4 4l12 12l-52 20l-80 20l-148 -4l-120 -24l48 -4l44 -16l24 4l-20 -8l24 -24l56 40l56 24l-92 -60l-12 -16l12 -12l20 -60l-32 68l-24 20l24 -92l-36 96l-24 16l24 -48l8 -52l-24 72c-6 22.667 -20.667 36 -44 40h-8l4 -8l-24 8l4 -12l-28 4l-12 -12
    l-4 -16l-4 4c0.666992 12 7.33398 22.667 20.001 32l-56 28l-4 40h-12l-4 -120l-4 116v-112l-12 4l-12 40v72h-20v-248l16 -12l-16 8l-4 248l-8 4l4 48l8 12v-56h48v16l4 -12h12v12l-20 4l4 12l16 -4v12h-24l8 4v16l-8 4h8l-4 20l-44 4v-20h24l-24 -8l-12 8l4 400l8 -376h8
    v492l12 8h28l4 -508h12v512l-20 12l24 -12l32 16l-8 -16h8l28 -32l12 -4l8 24l4 -16l-12 -12l48 4l16 -20h12l-4 12l12 8l4 -12l-8 -4v-8l32 8l28 -16h20l8 8l32 8l28 -12l4 20l8 -4l-4 -16l32 16l56 -8l12 12l28 12l-164 -228l20 16l132 176l56 88
    c-10 -2.66699 -16.667 -10.667 -20 -24l-24 -24l8 16l-104 -20h-148l-92 16l-64 32l76 48h-8v-28h40l-4 -8l20 12l-28 168l-48 72zM391.999 1212l-20 -8l-28 8h48zM467.999 1204l12 8l-8 -12h-20l-16 12zM551.999 1148c0.666992 -12.667 7.33301 -23.333 20 -32l12 -20
    l32 -20l-20 8l-44 44l-4 16zM295.998 1136h44l12 -12h-48zM451.998 1132l36 -140l-44 144zM651.998 1136l24 -16.001l-4 -60v56l-12 12c-12.667 -1.33301 -20.667 -8 -24 -20h12l4 8l12 -20v-40h-16l-16 12v48c7.33301 2.66699 14 9.33398 20 20.001zM219.998 984.002
    l-20 -12l8 16l-8 4h12l-8 72zM315.998 1108l32 -8v-20h-52l-4 8c11.333 6 19.333 12.667 24 20zM567.998 1100l36 -36l72 -24v-28l-8 -4l-32 12l-56 52l-12 20v8zM263.998 1040l20 -8v-12l-24 16l4 20v-16zM603.998 1060l24 -28l40 -12v16h-16zM279.998 1048l20 -12l-20 4v8
    zM535.998 996.002l8 4l-4 -20l20 -8h-16l-8 8l-12 44zM327.998 1004h20l-24 -4l-28 8v12zM315.998 996.002v-8l-40 4l-16 -8l4 12h52zM379.998 952.002l64 8v8l-32 16zM139.998 956.002l44 -24l64 -16l120 -8l160 28l-84 20l-88 -12l-52 -24l-40 4l-12 24l-12 8l-40 -12
    c-10.667 4 -18.667 13.333 -24 28zM31.998 944.002h20.001l-20 -8c-15.333 -2 -23.333 -11.333 -24 -28v-96l-8 4l4 112c9.33301 0.666992 18.666 6 27.999 16zM571.999 936.002l-20 -32l28 12l-4 -28l28 36c-7.33301 4 -18 8 -32 12zM39.999 924.002l-16 -8.00098v-492h8
    v492c13.333 4.66699 16 7.33398 8 8.00098zM79.999 908.001c4.66699 -13.333 15.333 -22.667 32 -28l64 -28l76 -12h160l68 12c-0.666992 4.66699 -44.667 2 -132 -8h-88l-128 32l-44 28zM547.998 896l-4 -28h8l16 20l4 16zM475.998 892l-4 -16h-8v24zM543.998 820v-8l60 80
    zM515.998 852l20 8l4 28zM307.998 884v-16h-12l4 20zM639.998 880v-12l-20 4v-8l64 -4v16l-36 4h-8zM555.998 868l-20 -32h8l16 28zM91.998 860l208 -252v8l-176 220c-5.33301 12 -16 20 -32 24zM531.998 856c-13.333 -1.33301 -21.333 -9.33301 -24 -24l-4 -16l24 8l8 24z
    M619.998 848l4 -8h12v-20l8 -4l-8 -4v-12l52 -8v16l-28 4l28 4v16h-8l8 12l-4 12h-32zM135.998 840l12 -16v12zM151.998 836c0.666992 -17.333 11.333 -26.667 32 -28c-1.33301 18 -12 27.333 -32 28zM495.997 835.999l-20 -36l12 4l-20 -16v-24c16 3.33301 25.333 14 28 32
    l-4 12l12 28h-8zM611.997 827.999l-8 -16h8v-16l-16 -4v8l-28 -40l4 -8l4 8c5.33301 14.667 17.333 22.667 36 24l8 16v24zM183.997 823.999l4 -20l16 -12l-12 4l4 -28l28 -12l-8 32h-8l8 8c-6 12.667 -16.667 22 -32 28zM211.997 819.999l100.001 -119.999v-8l20 -24h12
    c-0.666992 11.333 -7.33398 20.666 -20.001 27.999l4 4l16 -16l32 132l-28 -4l-32 -104l-92 112h-12zM383.998 812l-32 -124l100 132zM315.998 720l24 92l-104 4zM503.998 808l-4 -24l8 4l16 28zM159.998 808l31.999 -40l-4 28c-5.33301 5.33301 -14.666 9.33301 -27.999 12
    zM79.9971 792l4 -16h12l24 -28l4 12l-24 28l-8 -8zM663.997 788l-4 -496h8l4 496h-8zM223.997 784l4 -28l16 -8h-12l4 -28l24 -12v28l-12 4l8 8c-14 20 -24.667 32 -32 36zM439.997 752h8l16 16v16zM591.997 776l-16.001 -40.002c-19.333 -5.33301 -30 -18.666 -32 -39.999
    l-8 -8c-14.667 -3.33301 -22.667 -14 -24 -32l8 -16c-10 -8.66699 -15.333 -20.667 -16 -36l16 -32l-4 -24c4.66699 -13.333 15.334 -22.666 32.001 -27.999v-12c5.33301 -15.333 17.333 -26 36 -32l12 -32l20 -4l-20 16v28l-36 16v28l-28 8v48l-16 8l-4 24l20 16l-8 32
    l8 16h24v28l8 16h24v20c0.666992 10 6 18 16 24h12v12zM79.9961 771.998l0.000976562 -8.00098h8l-8 -8l12 -20h8v-8l28 -8l8 -12v-24l20 -4l16 -12v-24l-8 -16l24 -16l-4 -24l-16 -12l4 -32l-8 -12l-20 -8l-8 -32l-24 -4l-4 -36l-24 -8l-4 -12l32 8l16 40l16 4l8 32l28 16
    l-4 -12l-20 -8v-20l-32 -20v-20l-12 -16l-28 -8l-4 -48l56 72h-8l8 20l8 -8l24 36l-4 8l8 8l12 -4l20 52l-8 -4v24l-8 -12l8 36v-24h16l-4 44h-12l-4 24h8v12l-24 32l-4 -12l12 -8l4 -20h-8v8c0 12 -6.66699 18.667 -20 20l-12 8v12c-1.33301 13.333 -9.33301 21.333 -24 24
    l-12 12c-0.666992 18.667 -11.334 29.334 -32.001 32.001zM595.997 759.997l-4 -16l8 -4l16 20l-12 4zM199.997 759.997l27.999 -36v24c-5.33301 4.66699 -14.666 8.66699 -27.999 12zM455.996 751.997c-18 -2.66699 -27.333 -13.333 -28 -32l-4 8l-28 -28l8 -4l16 20l16 -4
    l20 16v24zM547.996 743.998l-16 -28l4 -20l20 48h-8zM131.996 731.998l16 -12l8 -28h12l-24 48h-8zM271.996 703.998l28 -12l-28 36v-24zM567.996 719.998l-8 -20l8 -4l16 24h-16zM79.9961 715.998v-24l12 -8l40 -60v-36l-8 -28l-44 -52v-24l16 12v8l36 40l16 52l-8 40
    l-36 52c-2.66699 10.667 -10.667 20 -24 28zM111.996 715.998v-8l16 -12v20h-16zM439.996 711.998c-9.33301 -2.66699 -14.667 -9.33301 -16 -20v-16l24 36h-8zM243.995 707.999l28 -40l4 20l8 -24l20 -4v16l-12 16h-24v8l-16 4zM415.995 699.999l-24 -12v-28l24 16v24z
    M511.995 695.999l-16 -44h8l4 -20v44l12 16zM587.995 659.999l-16 -48h24l-16 28l16 -12l12 44v-124l-8 36l-16 -12l12 32h-24l4 -32l36 -44l8 4l-4 160zM79.9951 683.999v-168l36 40l12 44l-20 -4l8 -16l-4 -12l-16 16v-44h-8v120h8v-36l20 16c-16 25.333 -28 40 -36 44z
    M367.995 651.999l24 -20l16 28l-24 -8l4 32zM311.995 647.999l-28 12l20 -32l24 20l-4 20h-8l-4 12v-32zM147.995 675.999l4 -20l12 16zM535.995 675.999l-8 -20l8 -8l12 28h-12zM411.995 619.999l-4 -20l48 -52l-8 28l8 96zM347.995 667.999l-48 -64l52 -60l44 56l-16 32
    l-28 32zM243.995 659.999v-120l48 64l-40 52zM179.995 647.999l15.999 -32c-9.33301 6 -14.666 16.667 -15.999 32zM343.994 647.999c10.667 -3.33301 18.667 -11.333 24 -24l16 -16v-8l-32 -40l-36 44zM99.9941 607.999h28l-8 28zM343.994 631.999l-16 -20v-12l8 -4
    c1.33301 -10 8 -15.333 20 -16l16 28c-6.66699 13.333 -16 21.333 -28 24zM487.994 631.999v-48h12l8 -20l-12 -4l24 -44l12 8h-8l-12 16v36l-12 24v28zM515.994 615.999v-16l16 -8v32h-8zM167.994 619.999v-32l16 16l-8 16h-8zM223.994 503.999l-100 -144l-12 -8l-16 -32
    l184 240l20 40zM395.994 591.999l120 -140l68 -92l20 -8l-196 240v8h-8zM387.994 583.999l-8 -16.001l-12 -8l24 -32l-8 32l28 -12l4 4c-16.667 20.667 -26 31.334 -28 32.001zM307.994 579.998l-16 -27.999l24 8l-4 -28l20 20c-0.666992 11.333 -8.66699 20.666 -24 27.999
    zM535.994 539.999l16 -4l-16 32v-28zM159.994 563.999l-12 -28h16l8 16l-4 12h-8zM287.994 543.999l-8 -32l28 16v24zM391.994 551.999c0 -20 10.667 -32 32 -36c0 20.667 -10.667 32.667 -32 36zM339.994 543.999l-200 -264l-4 -16h8l24 36l12 8l-8 -12l116 20h144l80 -16
    l76 -32l4 16l-24 16c-7.33301 12 -19.333 20 -36 24l-36 -4l-16 20l-56 -8l-24 20l-52 -16l-32 12l8 -16l-12 -8v24l-24 -8l-4 -8l-40 8l-56 -20l160 220zM359.994 543.999l-4.00098 -12.002l96 -116c6.66699 -13.333 17.334 -22.666 32.001 -27.999l-112 148
    c-5.33301 4.66699 -9.33301 7.33398 -12 8.00098zM423.993 539.997c0 -20.667 10.668 -34 32.001 -40c-10.667 20.667 -21.334 34 -32.001 40zM247.994 495.997l28 12v24zM319.994 399.997l28 -4l28 112l-12 8l-4 12zM339.994 519.997l-96 -132l68 8l32 120z
    M535.994 491.997l20 -24l16 4l-24 20l-12 28v-28zM563.994 519.997l12 -28l12 4c-3.33301 11.333 -11.333 19.333 -24 24zM115.994 491.997h12l8 24zM291.994 507.997c-13.333 -4 -20 -14.667 -20 -32l24 40zM403.994 507.997l28 -28l-4 28l-20 8zM431.994 503.997
    c0.666992 -20 11.333 -33.333 32 -40l-12 36zM263.993 499.997l-24 -24v-16l24 8l8 32h-8zM379.993 491.997l-20 -92l100 -4l-72 88v8h-8zM463.993 491.997l12.001 -60.001l20 -16h12l-4 16l-24 24l16 -4v8c-18.667 20.667 -29.334 31.334 -32.001 32.001zM211.994 443.996
    l20 8l4 28zM599.994 475.996l-4 -12l24 -8l-12 12v8h-8zM95.9941 471.996l-12 -24h12l8 8v16h-8zM447.994 451.996h8l16 -20l-4 24l-20 8v-12zM251.994 459.996l-16 -20v-16l24 36h-8zM571.994 455.996l24 -36l16 8v-8h8v12l-36 16v8h-12zM227.994 447.996
    c-17.333 -4.66699 -26.667 -18 -28 -40l28 12l4 28h-4zM511.993 411.996l28 -12l-28 36v-24zM171.993 391.996l-8 -36l8 4c12.667 4 20.667 14.667 24 32l-8 8h8l4 32zM507.993 387.996l36 -12.001v8c-4 10.667 -13.333 17.334 -28 20.001l-4 -12v12l-32 16z
    M611.993 399.995h8v12l-16 4zM99.9932 419.995v-12l-16 -8l8 16zM547.993 387.995v-12l16 -4c-2.66699 6 -8 11.333 -16 16zM135.993 343.995h8l16 16v16zM219.993 359.995l-4 -8l140 16l104 -4l64 -12l96 -48l-4 12l-76 36l-104 20l-88 4zM159.993 347.995v-28l24 40z
    M127.993 327.995l-4 -19.999h12c10.667 5.33301 16 14.666 16 27.999l4 8zM391.993 343.996l12 -4l-12 -16l-4 8zM471.993 335.996v-16h-12l4 12zM119.993 327.996l-24 -36l28 -16l24 32l-28 -12l4 28zM239.993 327.996l-4 -16h-8l-4 16h16zM547.993 311.996l-12 -16l4 20z
    M639.993 291.996l20 -4l-16 12zM399.993 291.996l24 -0.000976562l16 -12l12 -28l24 16h20l24 -16l4 -12l16 4l-32 -32l-24 4l8 -56v-64l-16 124l8 16h8v-16h24v24l-52 8l20 -172l8 8l8 -32l36 -48v-8l-88 20l-44 -16l-52 20h-28l-24 -12l-68 12l-24 -8l20 16l76 -12l36 12
    l44 -20h40l32 12l68 -16l-16 32l-304 4l-20 -44l20 48v24l-20 60l24 -64l20 -8l-24 88l28 -76l24 -12l-24 56l-12 72l36 -120l24 -8v12l4 -8l24 -4l4 12l28 -8l-8 28l60 -4l8 -8l-48 -4l-12 12c0.666992 -17.333 10 -26.666 28 -27.999l112 4l-4 44h-28l-20 8l-4 -20l8 -8
    l32 -4l12 -8l-48 4l-8 32l12 32v-12h36l-8 72h-16l-20 -12l-4 8l32 12l4 -4v28l-12 24c-4 15.333 -18.667 26 -44 32zM131.993 239.995h8v-20l-8 4v16zM387.993 219.995h40l8 8v-16l-52 4l-4 12zM403.993 199.995v-8l-48 16zM47.9932 195.995l48 -32l32 -44v-8l-60 48l8 4
    l20 -12v8l-12 4l-8 12l-48 20v-20h-8l4 20h24zM411.993 191.995l24 -16v-8l-20 12zM419.993 171.995v-8l-16 8h16zM35.9932 151.995h20v-48l-16 -8l-8 12l4 36v8zM75.9932 139.995l20 -12l-16 8v-56l-24 -20l16 16l4 56v8zM407.993 127.995v-8l-28 -16l-28 8l-8 12l24 8z
    M99.9932 127.995l12 -12l-8 4zM147.993 59.9951l-16 32l12 -12zM231.993 11.9951l28 -12h-40z" />

  <path
    id="queen1"
    d="M312 1212h8.00195l-24 -44l32 40l12 4l-32 -40l24 8l24 32h8l-12 -24l-12 -8c-18.667 -1.33301 -29.334 -10.666 -32.001 -27.999l4 -8h36l8 -16l-12 12h-36v-16l28 4l16 -12l8 4v-20l-56 4l8 -68l36 -68l-4 -4l-4 8l-40 -28l-36 -36l36 -16l28 16l32 -8l4 12h20l-4 -16
    l24 12l36 -4l8 16h12l-4 -12l-12 -4l16 -4l4 8l36 12l16 -4l-4 16h-16l8 4l-12 52l-48 -32l-40 -16h-36l-4 8h52l68 44l4 92l-28 52c-6 20 -22 33.333 -48 40l-16 4l-24 32l72 -44l-8 12l-40 28l12 4l20 -16l-4 16h32l40 -64l120 -124l32 24l-28 84l16 80h8l-20 -48l8 -72
    l20 -32v-12l-24 -16c-10 -10.667 -15.333 -24 -16 -40l8 -20l72 -56l8 -16l-44 28l-112 108l-68 92l40 -76l56 -72l116 -116l8 4l4 -180l-84 56l-72 12c5.33301 13.333 17.333 22.666 36 27.999l28 24h16l40 40l-132 -80l-176 -120l-36 8l24 108l4 -12l24 8l-20 20l-4 -8v32
    l12 4l-4 -16l24 4l-8 8h32l12 -12c0 -6.66699 4 -10.667 12 -12l24 28h-12l20 4l-96 -104l-8 -16l148 124l-8 4l136 28h-64l-104 -20v12l76 16l-20 4l16 12h16v8l-68 -12v-20l-100 -8l4 12l64 4l-4 16l92 20c-11.333 12 -28.666 18.667 -51.999 20l-32 -24l-48 12l-20 -16
    h-20l-32 16l-16 -4l-4 -8l-36 -4l-24 20l-32 -28l68 -8l-12 -12l-72 12l12 -16l-24 -4l72 -12l-4 -12l-104 16v-12l72 -12l-12 -4l48 -104l8 -4l-32 96l8 -8l16 8v8l72 -4l-20 -112l-8 -4l8 116h-40l8 -12l16 -8v-12c-8 -0.666992 -13.333 -6 -16 -16l16 -4l4 -12l-8 -76
    l-60 12l-72 24c7.33301 -13.333 20.666 -21.333 39.999 -24l152 -40l100 -12l32 -64l36 -40l132 -84h-12l4 -76l-44 8l8 -12l-20 4l-4 44l-36 -20l4 -16l-12 8l-40 -28h-8l-4 -80v68l-24 -12v-72l-48 -140l52 100l-56 -132l-8 -80h-8v36l-24 -36l20 44l-32 -44l-12 4l36 40
    l-32 -16l-16 -28h-8c6 20 20.667 33.333 44 40l12 12v12l-40 4l-4 8l44 -4l-4 16l-52 8v40l12 28l-40 8h20v12l24 -16l-12 -52l52 -4v44l-8 28l-44 76l-16 8l-64 -16l-48 -32v-100l8 -4l20 -40c3.33301 -15.333 12.666 -26 27.999 -32l40 -16l16 -28l-8 4
    c-6.66699 14 -18.667 23.333 -36 28l-24 12l16 -24l28 -12v-8h-8l-16 16h-12l12 -16h-12l-8 8l-4 -8h-12l-84 120l-76 68l-28 -28v-8l-8 8l8 12c16 5.33301 26.667 17.333 32 36v28l-84 64v8h8l100 -88l64 -68l52 -84l12 -8l-20 44l-92 132l-116 112l-8 -4v92l20 -8l-20 16
    l4 80l40 -36l56 -28l56 -4l-32 -28l-36 -20l-24 -4l8 -8l-40 -28h20l88 64l188 120l4 8l44 -4l-20 -96l-28 -8l16 -20l4 -24l12 8l16 104l8 4l-8 -116h12v32l8 -4l12 8l-4 12l-12 4l4 88l76 -16l52 -20v8l-84 32l-200 32l-48 80l-64 60l-100 52h20v24l12 -4l32 8v8l-16 4
    l16 4v20h-12l8 12l-40 16v8h32l-4 -8h-12l4 -8l36 -12v-40l40 20l-8 16l20 -8l68 52v68l48 144l-20 -32l16 36l20 100v-28c14 12.667 22 24.667 24 36zM484.002 1212h28l12 -20l24 -16v32h8l4 -40l60 44l-4 -12l-44 -36l20 -16l20 -4h-40l12 -36l48 -52h-12l-28 24
    c-14 5.33301 -23.333 16 -28 32l-12 36l-52 36l-8 16zM432.002 1144l8 -8l-64 8h56zM404.002 1124l36 -4l4 -20l-52 -4l-8 12c8 2 14.667 7.33301 20 16zM292.002 1104l-24 -108l4 -60l48 32l12 16l-32 64l-4 52zM492.002 1072v-48l16 -72l20 -32l48 -44l40 -16l64 -4l-8 16
    h-32l-52 16l-28 24l-24 40v12l32 -44l16 -12c8.66699 -13.333 22 -21.333 40 -24l36 -4l-16 20h-12l-44 20l-28 44l44 -48l24 -8l-128 160zM352.002 1044h36l-20 -4l4 -12l-28 24zM400.002 1008v-12h-56l-4 8zM76.002 972l3.99902 -52l28 -20h68l-8 -8h-32l8 -8h-36v-8h-16
    l-4 12h-40l-8 -12v-24c-10 6 -15.333 16.667 -16 32c6.66699 11.333 17.334 18 32.001 20l8 4l20 -8v8l-12 12l-48 4v48h52zM28.001 968v-12h12v12h-12zM56.001 968v-12h16v12h-16zM44.001 952l-4 -12h16v12h-12zM28.001 936v-12h12v12h-12zM56.001 936v-12h16v12h-16z
    M288.001 912h16l-4 -12l-16 4zM324.001 868h92l4 -8l-100 -4zM248.001 856l104 -8v-12h80v-12l-132 -4l-56 24zM44.001 852l28 -4l-24 -4l4 -12h24l-28 -8v-12h12l-16 -8v48zM80.001 756l68 36l8 16zM52.001 792v-12l36 20zM268.001 796l-8 -12l16 -16l12 4l8 12l-12 4z
    M392.001 796l-28 -15.999l12 -16l36 8l4 8c-3.33301 7.33301 -11.333 12.666 -24 15.999zM176.001 780.001l-51.999 -32.001l-8 -12h12l56 36c-2.66699 4.66699 -5.33398 7.33398 -8.00098 8.00098zM256.002 776l4 -20l12 -4l4 12l-12 12h-8zM0.00195312 776l16 -4v-20
    l16 12l56 -28l-4 -260l-32 16l-20 32l-4 -8l-28 16v244zM176.002 756c12 -8.66699 18.667 -20.667 20 -36l-12 -8v-8l52 -16c-1.33301 14.667 -8 26.667 -20 36l-24 40h-12zM396.002 764l-12 -12l4 -8l24 20h-16zM132.002 736c2.66699 -10 10.667 -18 24 -24l16 -4l-12 20
    l16 28zM280.002 756l-8 -12l8 -8l16 12zM368.002 752l-16.001 -12l4 -8l28 8c-3.33301 6.66699 -8.66602 10.667 -15.999 12zM28.001 672l8 4l4 44l-8 16zM176.001 740l-8 -16l16 -8l4 20zM344.001 740l-4 -16c6.66699 0 10.667 4 12 12zM596.001 740v-252l-24 12l-56 48
    l-32 48l-12 44v52l28 40l28 8h68zM524.001 736c-18 -5.33301 -31.333 -17.333 -40 -36l-8 -40l12 -60l40 -56l52 -44l12 12h-16l-8 8l24 20h-52v20h16l-24 20l4 8c0 6.66699 -4 10.667 -12 12l4 -20l-16 -4l-4 20l16 4l-12 16v16l-8 -16l-16 12l16 12v20l12 8l-4 16l8 20
    l32 -8v12l28 28h-56zM528.001 732l20 -4v-8l-20 -8v20zM608.001 732l40 -16l20 -32l4 12l24 -16v-248l-88 44v256zM100.001 724l84 -64l40 -72l4 -64l-36 -48l-32 -12l-56 4l-8 8l4 240v8zM344.001 712l16 4l-12 4zM576.001 708l12 -8l4 12l-8 4zM108.001 712
    c0.666992 -10.667 7.33301 -17.333 20 -20l-16 -16v8l-4 -12h16l16 -16v16c12 0 18.667 -6.66699 20 -20l-20 4v-8l16 -8l8 -12l-4 -12l24 -16l-4 -24l12 -4l-4 20l12 4h-8l16 -8v-12l-16 -4v-20l-12 -8l4 -24l-8 -12l-24 4l-28 -16v-16h-8l8 -8h40l-12 8v16h20l-8 -20l24 8
    c14 6 23.333 18 28 36v68l-28 56c-45.333 41.333 -72 64 -80 68zM560 704.001v-8h12l20 -16l-16 24h-16zM332 696.001v-12l12 8v8zM456 704.001h8l-4 -68l-84 8c46 32 72.667 52 80 60zM528 696.001l-8 -16v-24h-8v-12l16 -16l-4 -20l16 -8l4 -24h16l8 -28h24v12l-12 -4
    l-8 24l-20 4v24l-20 4l4 24l-12 4l-4 12l16 16l-8 4v12l28 -4l4 8l-12 4zM444 688.001l-8 -12l16 -12v24h-8zM508 692.001l-4 -20h-12l-4 16zM560 676.001l-24 -4l12 -8l-20 -20l12 -8l8 4l-4 8l24 24l24 -4l-28 16zM396 656.001l16 -12h12l-4 16l8 12zM108 664.001l-4 -12
    h16l8 -8v-16l20 -4v-24h16v-16l12 -20l-4 -12h-8l4 -28l-28 4v-8l28 -8l8 4l-4 20l16 28l-16 12v28h-12l-8 32l-16 4l-8 24h-20zM432 664.001l-4 -12l8 -4l4 16h-8zM572 664.001l-12 -8v-40l32 -28l-4 12l-16 8l-12 28l4 16l28 8zM440 648.001l4 -8l8 4l-4 12zM240 624.001
    l4 -20h12l-12 24l12 16l-32 4zM664 636.001l-12 -20l4 -28l8 -12l4 8zM108 644.001l-4 -12l16 -8l-4 20h-8zM24 564.001l8 4l12 44l-12 20zM268 636.001l8 -12l-8 -20l24 -4l12 32l-16 4h-20zM188 628.001l-4 -12l-16 4l4 12zM256 632.001v-20h12v16zM316 628.001
    l3.99902 -20l-8 -8l32 -8l-8 24h8c-5.33301 5.33301 -14.666 9.33301 -27.999 12zM103.999 620.001l24 -24l8 -20l-16 -24h12l12 12l-4 20c-3.33301 20 -15.333 32 -36 36zM123.999 620.001l16 -16v16h-16zM303.999 620.001v-16h8v16h-8zM355.999 620.001l8 -12l-8 -20
    l24 -4l4 32h-8zM347.999 616.001v-20l8 4v12zM399.999 612.001l4 -16l-8 -16l32 -8v36l-16 4h-12zM387.999 604.001l-4 -12l8 -4l4 16h-8zM435.999 600.001l-4 -20l8 -4l8 16zM451.999 580.001h-8v-16l28 -4l-16 28zM143.999 592.001l4 -16l12 16h-16zM575.999 580.001
    l12 -12l4 12l-8 4zM151.999 572.001c-4 -19.333 -14.667 -30 -32 -32h-12l16 -8v-8h8l4 12l24 -4l-8 20l12 16zM239.999 576.001l80 -8l-4 -12l-84 -48l4 60zM275.999 544.001l24 12l-24 12v-24zM259.999 560.001l-4 -12l8 -4l4 16h-8zM247.999 544.001l-4 -24l16 8
    c-0.666992 6.66699 -4.66699 12 -12 16zM663.999 540.001l-12 -36l12 -36l4 64zM195.999 540.001l11.999 -4.00098v-16l-16 -4l-4 16c2.66699 0.666992 5.33398 3.33398 8.00098 8.00098zM103.998 528v-8h12c2 -10 8.66699 -15.333 20 -16v12h-12l-8 12h-12zM451.998 528
    l16 -32l12 -4v-8l28 -28v-12l56 32l-4 12l-36 16v-8h8l4 -12l-20 -28l-12 12l-4 24l12 16l-52 20h-8zM339.998 524l-12 -16l-152 -120l-108 -24l48 -4l116 24v-16l80 4v-12l-28 -4h92v-12l-96 -4l-4 8l8 4l-8 8l-68 -12v16l-48 -8h20v-12l-28 -8l44 8l56 -4l-92 -16
    c2 -10 10 -16.667 24 -20l28 -4l20 20l60 -8l16 16h28l20 -16l40 16h20l32 -20l4 8l24 12v8l-72 8l12 12l60 -8v12l8 8h-32v-12l-108 4v20l-76 -4l-4 12l132 4l-4 -16l36 -4v16l108 -16l4 8l-56 16l-132 12l-116 -8l112 124h-8zM399.998 524v-12l8 -4zM415.998 516l16 -56
    l-12 -8l16 -16l8 8l12 -40l16 -4l-8 36l-40 76zM103.998 496h20l-12 16zM335.998 492h16l-4 8h-8zM515.998 496l-8 -16l12 -12l8 20zM319.998 480h8l4 12zM395.998 488v-16l12 12zM343.998 476l12 -4v12h-8zM311.998 472l4 -12h16l12 8l-4 8zM407.998 472l-4 -12l12 -4l8 8
    l-4 8h-12zM303.998 468l-20 -24l32 8c-0.666992 6.66699 -4.66699 12 -12 16zM591.998 448l-52 -36h-8v-8h8l76 52zM315.998 448l-36 -12.001l20 -24l32 16c-0.666992 8.66699 -6 15.334 -16 20.001zM407.998 439.999l-8 -12l28 -12l8 8c-6 10.667 -15.333 16 -28 16z
    M271.998 431.999c-10.667 -3.33301 -18.667 -12.667 -24 -28l44 4c-5.33301 12 -12 20 -20 24zM615.998 419.998h24l4 12zM19.998 423.998l32 -12l-28 16zM391.998 423.998v-16h20c-2 8.66699 -8.66699 14 -20 16zM319.998 411.998h16l4 8zM443.998 419.998l-12 -8l4 -8h16
    v12zM619.998 411.998l-16 -12l44 4v8h-28zM607.998 395.998v-24l40 -4v12h-20l20 4l-4 16zM655.998 363.998l16 -16v-24l-12 -12l-44 -4l4 -12l52 -4v-52h-48v36l-24 28l-4 16l-32 -12h-52v12l32 12l24 -8l20 4v8l44 8l-12 8l8 4l8 -8h12v-12l-40 -4l4 -8h32l16 16l-4 16v8z
    M15.998 347.998l28 -12h32l60 -36l28 -48l8 -40l-32 72l-28 24l-48 24l-28 -4l16 -16l52 -16l20 -20v-8l-56 36l4 -12l64 -64l8 4l4 -20l52 -64v72l-12 40l-40 56l-60 36l-68 4zM519.998 323.998l-4 -12l28 8v8zM311.998 319.998l-12 -16l-20 -4l-24 8l4 -8l-20 -8v16h12
    l-16 4l-8 -12l-16 -8h-32l8 -12h12l-8 -4l12 -52l88 48h20c16 0 32 -10.667 48 -32l72 56l-16 20l-24 4l-20 -16h-24l-4 8h-8l-12 -12l-12 4v8l16 8h-16zM391.998 311.998h20v-12h-20v12zM623.998 287.998l4 -12l12 4v8h-16zM655.998 279.998l8 -4l4 12h-8zM387.998 251.998
    c-11.333 -4.66699 -18 -14 -20 -28l28 -48l12 -52l16 92v64zM643.998 275.998l-4 -12h16v8zM623.998 255.998v-12l16 4v8h-16zM655.998 255.998c0 -6.66699 4 -10.667 12 -12v12h-12zM295.998 219.998l40 -8l20 4v-8h-60v12zM55.998 159.998l36 -12l40 -36l16 -40l20 -24
    l32 -24l12 -24h-24l-12 20l-24 16l-8 -36l-8 44l-12 -4v-8h-8l-20 -28l-16 -4l48 56l-44 12h40v16l-16 28l-40 40zM79.998 87.998l-4 -48l-16 -40l-4 8l16 40l4 36l-12 36zM307.998 115.998l4 -12l-20 -12h-36l-4 24h56zM259.998 75.998l56 -4l4 -8h-48z"
  />
  <path
    id="queen2"
    d="M272 1216l32.001 -0.000976562l-20 -16v-8l28 16l-24 -16l12 -48l24 4l20 -8v12l-12 12l-28 4h32l12 -44h-48l4 -68l32 -84l-20 -4l-16 -12l-4 -12l132 -12l84 16l-4 8h-12l4 12l-20 44l-8 4l-28 -24l24 24v40l32 -76l52 -64v-8h8l32 -32l64 -28h20l-4 8l-104 60l-40 44
    l-20 32l-40 108l56 -124l28 -32l52 -28l-24 24v8l-24 12l-28 28l-20 48l32 -44l-44 92l-8 -8l-20 56l-24 28l-4 56h24l16 -28l120 -128l28 -16l-28 -20l12 -24l32 -32l68 -48v-56l-24 12l-132 140l-76 128l32 -88l80 -120l92 -84h28l-4 -12l-36 -8l-132 -52l-116 -76l76 -12
    l164 56h48v-8h-12l8 -8l4 -104l-12 -8l4 -16l-8 -12l8 -4l4 12l4 -48l-12 -28v-68l-4 72h-8l-16 -28l-68 -72l16 -36l20 -16l-4 40l32 16c13.333 0 21.333 -10.667 24 -32l4 8v-32l-16 -4l4 12l-12 32l-12 -4v-8l-8 4l-4 -16l12 -28l-8 -8v20l-4 -24h-8v-16l40 -36v-28
    l-12 20l12 -4l-12 20l-4 -8l-32 12l-4 20h-8v-36l-24 12v-28l-16 -4l-4 28h-16v-20l-4 24l8 16l8 -12l16 4l4 20l-20 4l-8 -8l8 12h16l4 -8h24l-20 16c-3.33301 8 -10 12 -20 12l12 4l20 -16v8l16 -8v8l-24 20l-36 -4l4 -12l-16 -12l-4 12l-56 -44l4 -100l-56 -132l-4 -88
    h-32l20 20l-44 -20l16 16c13.333 0.666992 21.333 7.33398 24 20.001l-8 36l-36 -4l-4 -8l8 -8l24 -4l-8 -4c-20 0 -30.667 9.33301 -32 28l-4 20l12 32l-4 -32h44l-4 60l-32 92l28 16l-8 4h20v8l-80 12l-100 -4l-36 -8l4 -12l48 8l-40 -8l20 -56l84 52l-80 -60l16 -68
    l-44 108l-52 72l-84 56l-36 4l36 -32l72 -36l36 -36l28 -52l56 -152v12l12 -24c7.33301 -13.333 20.666 -21.333 39.999 -24l44 -20l-12 -4l-36 16l12 -12l-12 -4l-16 8l4 -8h-12l-20 16l-4 -16h-20l-104 128l-32 28c-10.667 10.667 -24 16 -40 16l-20 -4l28 -84l-4 -48
    l-12 -32l-4 12l8 16v92l-32 52h44l36 20l-68 72l-44 28v52l48 -28l4 -12l36 -28l40 -44l100 -152l-8 32l-60 108l-112 124l-40 20l-8 -4v16l84 20l88 40l108 76l-68 12l-144 -56l-64 -4l-4 12l8 4l-8 4v100l12 4l8 32l-8 4l-4 -12h-8v52l8 4v24l4 -12l92 104v8l116 104
    l-8 36l4 64l20 60l40 88l-4 60v8zM352.001 1216l68 -32l-64 24zM380.001 1216h12l32 -16l16 -20c-32 18 -52 30 -60 36zM412.001 1216c10.667 -0.666992 20 -7.33301 28 -20l-24 16zM492.001 1216h16l16 -24l28 -16v32l8 -32l56 40l-44 -52l20 -8h-24l4 -20l24 -36l36 -28
    l-8 -4l-32 16l-20 20l-20 60l-36 12l-24 32v8zM652.001 1200l-12 -32l8 40zM368.001 1176l48 -8l12 -8l-60 8v8zM228.001 1020l-12 -64l8 -44l16 8l4 56l16 60l28 52v68zM504.001 1140l88 -112l20 12l-104 108zM380.001 1148l44 -4l4 -16l-12 4v-8h-40l4 12h-8
    c4 1.33301 6.66699 5.33301 8 12zM648.001 1084l28 -44l-36 8h24l-12 20zM372.001 1068l-20 -4l4 -12l-24 20zM492.001 1072l12 -24c-5.33301 6 -9.33301 14 -12 24zM284.001 1032l-16 -76l12 -8l4 8l40 20l-28 84zM336.001 1032l48 -4v-12l-8 8h-36l-4 -8l-4 4zM48.001 924
    h-8l-4 8l-12 -4l4 16zM120.001 944l16 -4l-8 -20h28v-16l-8 -8l-8 8l-24 -4v-16h-16l-8 -8l48 -24l16 8v-12l-28 -4l-8 12l-24 12l16 -16l-20 12l-4 -4l8 -12l24 -12l-28 8l-16 20l12 -32l-20 8l8 -36l-20 -12l-28 -4l-12 32l-4 -56v72l16 12l-4 -12h-12l16 -36l8 4l16 -8
    l-4 16l8 -4v52l4 -20l8 12l-4 12l8 16l-8 20l-8 -4l4 8l-16 12l28 -12l-16 16l16 -4l8 -24l8 -4l8 20l-4 12l8 -8h16v24h-8zM236.001 904l64 -20l52 -8h92l64 8l40 12l-24 28l-16 -28l-20 12l-12 16l-40 -36l-28 28l-16 -4l-12 -20l-20 -4v8h-8
    c-1.33301 14 -9.33301 22 -24 24l-24 -24l-24 16v16l-12 8zM252.001 896l20 -36l8 -4l44 -96l-4 32l-36 80c-8 12 -18.667 20 -32 24zM192.001 872c3.33301 -12.667 12.667 -22 28 -28l68 -84l-48 84l-40 36zM476.002 880c-13.333 -6.66699 -22.667 -17.333 -28 -32l-60 -92
    l-12 -40l48 80l76 84h-24zM568.001 880.001l-48 -32l-92 -96l-8 -20l72 72l80 56h8l4 12zM356.001 848.001h-8l-4 -16l16 -4v-8l24 12l-12 12l-4 20zM176.001 856.001l-4.00098 -12l44 -32l60 -68c2 -12 10 -20 24 -24l-72 96c-21.333 22 -38.666 35.333 -51.999 40z
    M572 840.001l-104 -72l-28 -28l8 -4l24 24l124 68l36 12l-24 12zM712 824.001v-44l-112 -20l-116 -36l4 12l76 40l132 44zM352 808.001v-12l-12 -8l4 -12h12l4 -8l4 8l16 4l-4 12h-8v16h-16zM160 804.001l-4 -11.999h-12l-8 -8c1.33301 -10.667 8 -17.334 20 -20.001l8 16
    l-4 4l12 16zM212 784.002l-8 -16l-28 -16l4 -16l44 -4v-16l-8 -4c-18 -1.33301 -27.333 -8 -28 -20l32 -8l4 -24l-44 -4l16 -24l16 -8v-16h-52l8 -24h8l8 -32l44 92v100l-16 32v8zM224 768.002l16 -87.999l-20 -84l-76 -88l36 16l-4 4l36 44l32 88l-8 88l16 -16l4 8
    c-12 15.333 -22.667 24.666 -32 27.999zM564 768.003l-32 -20l40 8l4 8zM212 760.003v-8l-20 -4v8h8zM352 744.003h-8l12 -16l12 4l-8 24zM104 740.003l-4 -12h-16v-16l20 -4v16l12 16h-12zM596 720.003l-76 -56l-36 -68l-8 -92l24 -76l4 20l12 12l-20 4l20 8v-12l20 8
    l-4 12l-44 4v20l36 12l-4 12l-24 4l-12 12v12l44 8l-16 24l-16 8l8 20l40 -8l4 20l-24 24l8 16l52 -16v12l-12 16l4 24h20l28 -24l4 44l20 4l20 -36l12 4v20l12 24h-32zM152 728.003c-12 -5.33301 -18.667 -14.667 -20 -28l24 -36l8 4l-8 64zM256 724.002l60 -92v-24l12 4
    l-28 64l-40 56zM240 620.002l-16 -44l-24 -28l8 -4l104 72l-56 104zM604 720.002l16 -20l-8 -4l-8 16v8zM532 700.002v-16l28 24zM52 668.002l-12 4v-24l20 4l-4 16l12 16h-12zM480 672.002l16 8h-12zM552 684.002l7.99902 0.000976562l8 -16
    c-7.33301 1.33301 -12.666 6.66602 -15.999 15.999zM99.999 676.003l-40 -55.999l28 -12c16.667 1.33301 28.667 10.666 36 27.999v24l-12 16h-12zM459.999 652.004l-64 -52l24 -52l36 -44l8 76l20 60l20 32h-8zM667.999 672.004l-64 -28h36l36 -16l24 44l-12 -4z
    M331.999 668.004l-12 -12v-16l12 -24h8v-12l-4 8l-32 -24l8 -24h12l16 12l4 16l16 -32l16 -12l16 12l-16 48l28 20l-8 24l-40 -24l-12 40h-12zM275.999 664.004l20 -52l-44 -24l16 80zM199.999 648.004l20 -4v-8l-24 4zM531.999 632.004v-8l-20 8h20zM383.999 612.004v-20
    l28 -52l4 8l-28 56l16 16h8v8zM447.999 628.004h12l-16 -76l-28 32c12 17.333 22.667 32 32 44zM611.999 612.004c-16.667 -6.66699 -26 -20 -28 -40l8 -24l20 -4l36 56l-16 12h-20zM479.999 608.004c-2.66699 -6 -1.33301 -6 4 0h-4zM176 596.004l20 -4v-8l-20 4v8z
    M36 588.004l-28 -32v-8l60 4l20 16l-44 20h-8zM488 580.004h24.001l-4 -12c-6.66699 1.33301 -13.334 5.33301 -20.001 12zM128.001 568.004l-4 -12l12 -32l-16 -12l-32 28l-8 -4l4 -40l-8 -8l-16 4l-16 32h-8l-8 -36l-12 -4l4 -8l92 20l64 44l4 12h-20l-20 12z
    M472.001 472.004l-8 -4l16 -20l-8 48v-24zM660.001 568.004l-8 -12v-28l12 16h12l4 16c-4 5.33301 -10.667 8 -20 8zM544.001 516.004l8 -28l16 8l12 16l-28 52zM140.001 552.004l16 -16l-16 8v8zM416.001 532.004l16 -16l-12 24zM508.001 524.004l-4 -8h-20v8h24z
    M88.001 520.004h11.999l4 -20c-7.33301 4 -12.666 10.667 -15.999 20zM604 496.004l4 -8l-8 -4v-12l32 16v12h-8l-4 12zM276 404.004l-64 -60l4 -12l-52 -8l20 -28l8 20l20 4l12 -16l24 -8l12 32h20l24 -28c10 2 16.667 8.66699 20 20l8 8h20l20 -32l32 24h16l12 -36l16 4v8
    l28 16l-44 16l-64 12h-128l60 80l36 88zM36 508.004h8.00098v-24c-4.66699 5.33301 -7.33398 13.333 -8.00098 24zM444.001 404.004l60 -64l16 12l-20 12l-48 52l-52 80zM412.001 500.004l23.999 -44l92 -96l12 16l-16 4c-61.333 72 -98.666 112 -111.999 120zM352 484.004
    l-8 4l-4 -12l12 -12l12 20h-8v8zM228 492.004v-8l-180 -80l-48 -8v44l44 4l164 44zM256 472.004l-8 4l-8 -16l-144 -76l-12 -12l20 -8l76 36l80 80zM272 468.004l-67.999 -64l-80 -52l24 -12l56 48h8l56 64c5.33301 8 6.66602 13.333 3.99902 16zM152.001 464.004
    l-16.001 -12l12 -4l20 12c-3.33301 2 -8.66602 3.33301 -15.999 4zM388 456.004l-4 -12l44 -96c4 -12 13.333 -20 28 -24l-28 40l-40 84v8zM348 440.004l-12 4l-4 -16l8 -4l4 -16h8l4 16h8l4 12l-16 4v8zM556 448.004l-12 -36l16 4v8h12l4 16c-4 5.33301 -10.667 8 -20 8z
    M596 420.004l-32 -40h48l12 -12v-8l12 -4l-28 60zM676 420.004l12 -40c4 16 0 29.333 -12 40zM344 396.004v-8l-12 4v-20h8l-4 -16h16v16l16 4l-4 12h-12v8h-8zM472 300.004l-4 -56l-12 -48l-32 -68l-4 -64l56 116l16 64l-8 64zM108 304.004l84 -92l48 -120v24l-40 104
    l-84 84h-8zM384 232.004l16 -28l12 -44l8 4l20 80l-4 24h-8zM168 216.004l8 -4l24 -48l4 12l-32 48zM328 196.004l36 -4l12 8l4 -12h-52l-4 16zM112 188.004l-12 -8c0.666992 -10 6 -16.667 16 -20l80 -80v-8h8l-56 76v8c-13.333 18 -25.333 28.667 -36 32zM356 168.004
    l12 -8l8 -16h-16l-12 12h8v12zM80 148.004l40 -20l16 -20l20 -52l36 -20l24 -32l-16 -4l-12 20l-32 16v-28l-8 32l-52 -40l-4 8l28 28c8 0.666992 13.333 6 16 16l-36 12l20 4l20 -8l-28 60l-28 20zM316 96.0039l28 -12l-16 -12h-44v16l12 4zM276 60.0039l24 -8l32 4l12 -16
    l-64 12zM280 32.0039c6 -10.667 15.333 -16 28 -16l-24 16h-4zM272 20.0039l16 -8l-12 16z" />
  <path
    id="king1" 
    d="M208 1208l20.001 -7.99902l4 8h28l8 -8l60 8l96 -8l44 8l40 -8l32 8l-24 -64l-8 -8l16 -56l8 -84l12 -4l8 -28l-12 -12l68 -48l12 224l16 12l16 -12l12 -264l24 -16v-160l-32 4l-16 12l-56 -12l-12 20c-10 -0.666992 -16.667 -6 -20 -16c4 -12.667 13.333 -20.667 28 -24
    l104 4l4 -8l-12 -4v-72l-8 -4c-13.333 -4.66699 -20 -14 -20 -28l-8 -220l48 8l-180 -88l-8 -12l-4 20l-44 4l20 16l-24 -4l-20 -16l8 16l16 12l-20 -4l-24 -24l12 24l-28 -20l4 12l-28 -4l-16 20l4 -12l-24 12l8 -24l-8 16l-28 12v-8l24 -12l4 -12l-8 12l-28 8l-20 -16v-12
    l32 -8v16h-16l16 4l4 -20l-28 -8v-12l-8 28l-32 20l-16 -8v-20l16 -12h-12l8 -112l-12 108h-12v-88l-12 80l-16 -4l8 -84l-12 80h-12l4 -96l12 -40l16 -4l-4 12l16 -12h56l-8 12l-8 68l4 40l4 -88c4 -21.333 12 -32 24 -32l-4 52l16 -48l8 -8h136l8 20l-8 32l-32 -8l-28 16
    l8 -28l52 4l-8 -12l-40 -4l-16 32v24l20 48l-12 4l-8 16l28 -20l-24 -60l64 4l4 84c0.666992 19.333 8.66699 30 24 32l-16 -24l8 -8h20l-12 -8l-4 -72v72l-8 4l-12 -112l8 -44l32 -72l-20 16h-12v-12h-28l4 8h-44v-12l-24 12h-56v-12h-20v12l-56 4l-4 -12h-20l4 8l-56 4
    l24 60l-24 148l-12 4v32l8 12l-72 44l-4 20l8 188h28v-16l20 -4l8 20l-8 12l-44 8l76 56c-0.666992 8 -6 13.333 -16 16l-8 -16l4 -4h-12l20 28l12 -8l8 -16l8 4c-2 9.33301 -8.66699 16 -20 20v8h-8l-32 -28l-4 8l40 28l32 -32l12 4l-16 16l-40 16l-4 -8l-32 -16l4 -12
    l-16 8l-16 20l-4 16l-44 -28l4 -8h-8l-4 -12l44 4l-24 4h36v-16l-8 4l8 -8v-28l-20 -4l4 8h-36l-4 -12h12l8 -12l-48 -4l4 24l4 -16h12v72l24 16l4 208l8 32h-12l-44 -20v12l64 24l128 64v16l4 -20l12 -12h28l16 24l4 -8l-24 -24l8 -4l28 24l-8 -20l-16 -12l20 4l16 24v-20
    l40 12l20 -20l-8 20l28 -28l-4 24c4 -12.667 14.667 -20.667 32 -24v8c-10.667 1.33301 -18.667 6.66602 -24 15.999l32 -12l20 12l-4 20l-16 8l-12 -8l4 -12h12l-16 -4v24l20 4l4 16l-8 132c-6.66699 13.333 -17.334 20 -32.001 20h-124v-32h8v8l48 8l12 -28v-36l-16 -28
    v-16c10.667 -0.666992 16 -6 16 -16l-24 16l20 60l-56 -4l-8 -24l4 -48l16 4l4 -16l20 12h12v-8l-8 -4l12 -8h24l-4 16h12l16 -12l20 4v12l-12 -4l12 8l4 -20l-24 -8l-16 4l4 -16l-20 8h-28l-4 -8v16h-24l-20 12l-8 -28l-24 -8l20 8v20l-20 4l8 12v72l16 76
    c-18 40 -27.333 61.333 -28 64zM364.001 1184l-32 4l-12 8l-52 -12l-24 12l-16 -16l292 -4l4 8l-44 8l-52 -8l-40 16zM236.001 1168v-8l276 4l-268 4h-8zM400.001 1136l12 -60.001v-72l12 -56l28 -16l12 12v20l-20 4l-4 -8c-14.667 116.667 -28 175.334 -40 176.001z
    M424.001 1136l12 -40l4 -124h20l-8 88l-16 76h-12zM448.001 1136l20 -160l16 4l-4 100l8 -88l16 -4l-4 92l12 -88h12l-12 124l-20 16v-12l-8 12l-12 4l-8 -8l-8 8h-8zM608.001 696c10 0.666992 18 6 24 16v164l8 48l-16 96l12 88l-4 20zM236.001 1116l-8 -24v-28l8 20v-20
    l8 8l-4 40zM320.001 1120l60 -4l12 -12v-8l-64 12zM248.001 1100v-16l36 8l16 -8l8 8l-48 12zM400.001 1076l-8 -12l-56 4l24 20zM312.001 1020l24 -8l4 8v-12l-28 4v8zM520.001 988l16 -28l8 20l-8 12zM508.001 976l4 -24l8 4l4 20l-8 8h-16zM484.001 976l8 -12v-16h8v28
    h-16zM468.001 972l4 -28h8l4 24zM524.001 948l-36 -12l-60 -112h-24l12 -12l20 4l56 52l40 76zM304.001 924l-40 -20l8 -28l120 -8l8 20h8l4 20l-44 -12l-44 16l-8 12h-12zM168.001 920l-4 -36l8 -8l36 20v20l-24 -4v8h-16zM572.001 912v-24l12 16l-4 8h-8zM244.001 908
    l44 -92.001l44 -140l-8 56h60l24 12l-76 16l-16 -16l-24 80l-32 64c-0.666992 10.667 -6 17.334 -16 20.001zM532.001 899.999l-20 -40h12v8l20 -8l-4 -16l8 -4l24 48l-28 -8l-4 20h-8zM68.001 887.999l60 -16l-4 -12l-4 16l-16 -12l4 16h-8
    c-10 -7.33301 -15.333 -19.333 -16 -36v-116l8 4l8 68l16 -4v56l4 -56l12 -8l8 72v-60l12 4v60l72 -52l40 -44l52 -92h8l-16 36l-64 92l-56 52l-72 32h-48zM224.001 867.999v-28l28 8v16h-16zM160.001 855.999v-48l12 -8l4 12l4 -24l12 4v44l-16 4
    c-2 6.66699 -7.33301 12 -16 16zM408.001 855.999l-116 -4l-8 -8h124c2.66699 5.33301 2.66699 9.33301 0 12zM444.001 815.999l-60 -24l44 -16l36 20l8 44zM500.001 839.999l-12 -48l8 12h16l4 -24l16 48h-12v-8l-12 4l4 12zM200.001 827.999v-36h8l4 28zM304.001 819.999
    l-4 -16l44 -12l-32 -4l-4 -8l8 -16l88 4l4 8l-32 12h-20l56 16v8l-80 12zM264.001 811.999v-12l12 4c-2 4 -6 6.66699 -12 8zM216.001 807.999v-56c0 -12 5.33301 -24 16 -36l4 80c-5.33301 6 -12 10 -20 12zM156.001 803.999l-16 -16l20 -20l12 24
    c-2.66699 3.33301 -8 7.33301 -16 12zM104.001 791.999l8 -20l16 -16h8l12 -60l-12 -4l-8 8l-40 12l-8 -36l8 -36l72 28l64 -28l8 4v64l-60 -12l12 56l-32 8l-4 16c-14 10 -28.667 15.333 -44 16zM192.001 787.999c-14 -2.66699 -23.333 -12.001 -28 -28.001l16 -4
    c12.667 0.666992 20.667 7.33398 24 20.001l4 12h-16zM384.001 759.998l24 -16h24l24 12l4 32zM100.001 771.998l0.000976562 -24h12l8 8c-2.66699 8 -9.33398 13.333 -20.001 16zM196.002 759.998c0.666992 -8 6 -13.333 16 -16v28zM476.002 771.998l4 -40l12 8l12 -4
    l8 -12l4 44l-28 -12v12zM388.002 727.998l24 -20h12l32 16v24zM244.002 735.998v-8h32v8h-32zM328.002 727.998l4 -28l68 4l4 8l-32 12l-36 4h-8zM248.002 719.998l-4 -16h48v8l-36 4zM448.002 715.998l-68 -20l16 -16h32l24 8c0 18 -1.33301 27.333 -4 28zM508.002 703.998
    l-8 -16h-12l-12 12v-48l16 16h12l4 -16l8 16v36h-8zM264.002 695.998l-20 -8v-8h64l-4 8l-28 4zM336.002 695.998v-16l56 -8v8c-9.33301 10 -24 15.333 -44 16h-12zM388.002 667.998l16 -20h48l4 36zM340.002 671.998l-4 -20l-12 -4v-16l16 -8l-16 -4l-12 16l-24 -16v-16
    l32 -12l4 16h8l8 -16h-16v-16l12 -4l-4 -12l16 -8l4 20h8l4 16l-16 8l12 12l4 -16l32 8l8 16l-8 8l-12 -4l-4 12h-16l-4 -12l-12 4c10 4.66699 15.333 12.667 16 24l-8 4l-4 20h-12zM244.002 651.998l36 -4l12 8v8l-44 4zM536.002 619.998l24 -4l-24 -28l-20 28l-8 -4
    l28 -32l36 32l16 -8l24 -28v-8h16l40 40h-44l8 -8h-20v52l36 4v12h-52zM100.002 639.998l-4 -12l12 -8l52 32l52 -32l8 16l-64 24zM636.002 651.998l32 -4v12zM240.002 643.998v-12h36l8 12h-44zM412.002 643.998v-12h44v8l-36 4h-8zM624.002 631.998h44v8l-36 4z
    M476.002 631.998v-32l40 20v12l-28 -12v8zM624.002 615.998h44v8l-36 4zM184.002 595.998l-4 -20l12 16l16 -4l12 28zM528.002 615.998l8 -20l16 20h-24zM492.002 603.998l8 -16l40 -20l44 32l-12 4l-28 -28h-12l-32 32zM28.002 599.998v-12h44v8l-36 4h-8zM484.002 595.998
    l-12 -16l64 -28l64 24v12l-12 4l-56 -28l-40 28zM28.002 583.998v-12h40v12h-40zM240.002 583.998v-12h48l-4 12h-44zM412.002 583.998v-12l44 4l-4 8h-40zM468.002 575.998l-12 -44l4 -24l52 12v-60l-28 -28l24 -4l24 16l-4 12h16l-4 -8l8 -8c10.667 -10 24 -15.333 40 -16
    l-4 12c-4 12 -13.333 20 -28 24l-8 64l60 -20l8 20v28l-8 20l-76 -24l-60 24zM180.002 567.998v-68l4 12l28 12l-4 -12h12v48h-8l-4 -16l-20 4v16zM240.002 531.998l72 12v8l-16 8v8h-52zM404.002 563.998l-12 -20h60v20h-48zM304.002 539.998
    c2.66699 -9.33301 10.668 -16 24.001 -20l-12 -4v8l-24 12l-52 -12v-24l56 12l-4 -8l16 -8l60 -8l16 -44l-24 8h-48l-28 20l-40 -12l-8 -24l8 -4l28 8l-20 -12c-12.667 -1.33301 -19.334 -8 -20.001 -20l-8 -32l32 28l28 8l-4 -8l24 -8h100l12 -40l32 -52l-64 164l-12 68
    l32 -64l52 -60v-8l52 -44l68 -32h36l-52 12l-32 16l-80 72l-68 112h-20l4 -28l-12 4l8 4l-4 20l-28 4zM388.003 535.998l8 -16h56v16h-64zM40.0029 523.998l24 -16l8 12h8c-15.333 -8.66699 -23.333 -24.667 -24 -48l8 -88l-12 -116l12 -92l-8 -84l12 -4l4 48l4 -44l-12 -12
    h-12l-16 16l-8 244c-0.666992 17.333 -10 28 -28 32v152h40zM404.003 499.998l48 -4v12l-44 4zM244.003 495.998l-4 -32l52 16l-4 -8l64 -16l24 4l-4 20h-76l16 8l-40 16zM180.003 495.998v-48l24 12l12 -16l4 48l-12 -16l-20 4v16h-8zM456.003 423.998l24 -16v56l-16 32z
    M608.003 495.998l-12 -32l-4 8l-20 -8v-8l20 -16v-24l-12 4v-8l-8 12h-12l-4 -64v60l-12 -8l-4 -56h16l12 -12l4 8v-12h12l4 12v-16l16 8l8 28v120zM420.003 487.998v-8l32 -4v12h-32zM484.003 471.998v-28l16 20zM520.003 431.998l16 -20h8l8 24h-8v8zM384.003 439.998
    l8 -24l-40 4l32 8v12zM156.003 383.998l28 12l4 -24c10 2 15.333 11.333 16 28l8 16h-32v16zM296.003 435.998l52 -12l-44 -8l4 12l-20 4zM500.003 419.998v-40l12 -4l4 52zM484.003 423.998v-28l12 -8v36h-12zM416.003 411.998l4 -8h12v12zM520.003 415.998v-48l16 -8v48z
    M268.003 403.998l-43.999 -32l-64 -96l4 -8l16 4c15.333 0.666992 24.666 8.66699 27.999 24l56 92l24 8zM108.004 307.998l12 -4l4 24l28 4v-12l12 -4l16 32l-4 8l-4 -8l-24 12l4 16zM284.004 375.998l-48 -84h12l4 16l36 52l120 4v8l-112 4h-12zM460.004 375.998
    c-10 -2.66699 -16.667 -9.33301 -20 -20l32 -8v28h-12zM320.004 347.999c-13.333 -1.33301 -22.667 -8 -28 -20l-8 -8v-16l32 16l56 -20l12 -12l48 20l-12 36h-96zM508.003 335.999l-24 -16v-16l48 -4l-4 36h-20zM208.003 263.999l8 -20h8l-4 32zM196.003 267.999v-28h16
    l-8 8v20h-8zM176.003 263.999l-4 -28l20 -4l-8 32h-8zM156.003 255.999l-8 -16l4 -12l16 -4l-4 32h-8zM404.003 235.999l28 4l12 -8l-12 -16l-4 12l12 -8l-4 12l-28 -12l-12 4l4 16l-36 -4l8 -12l-40 12l-12 -4l8 -12l-12 12l16 12h28v8l44 -4v-12zM360.003 211.999l24 -12
    h-12l-8 8l-8 -4zM324.003 155.999l32 -8l4 -12l-52 -8l-12 12v8l24 4zM300.003 119.999l16 -8h48l8 -16l-12 8l-44 -4l-12 12zM184.003 59.999l-4 -12h276l-20 8h-244zM176.003 43.999l-8 -12h24l36 -12l44 12l28 -16l48 16l32 -16l32 12l36 -8l8 8h12l4 8l-284 8h-12z"
  />
  <path
    id="king2"
    d="M224 1204l3.99902 8.00098l48 -8l36 8l40 -8l52 8l32 -8l44 8l8 -8h52l20 8l-24 -52l40 -24c10.667 2.66699 17.334 10.667 20.001 24c10 8.66699 16.667 22 20 40l20 12c-12.667 -8.66699 -20.667 -22 -24 -40l-8 -8c-5.33301 -20.667 -21.333 -35.334 -48 -44.001
    l4 -32l-36 24v-16l-8 40h-92v-24l28 -120l-16 24l-16 60v60h-24l16 -120l-20 48v72h-152l4 -32l8 8h36l12 -56l-20 -8l4 12h-44v-64l-8 52l8 56l-16 -20l12 56l-28 64h16zM659.999 1212l8.00293 -8.00098v-20l-16 -16l-24 8l-12 -32l56 -40v-24l12 -40l-28 -16l32 -156
    l8 -144l-72 72v-68l-20 -76l-44 -48l-36 -20l8 -4l44 24l8 16h8l36 60l-4 -120l8 -12l4 220l60 -56v-304l-76 -48l-48 8l-48 44l-8 32h-12l8 4l4 80h-32l32 4v120l44 264l4 -28l24 28l12 4l20 -16l8 12h12l20 -24v-8l24 -20l-4 32
    c-2.66699 16.667 -13.334 28.667 -32.001 36l-24 8h-28l-28 -12l-4 -8v16l-12 -24l-72 -40l8 -12l-12 4v-12l8 4l-16 -40l-4 28l8 28h-20v-12l-4 12h-36l-8 -12h-8l16 16l-4 4l-44 -44v-8l16 16l-68 -100l12 -4l12 12c0 15.333 6.66699 27.333 20 36l12 -4l12 40l20 4l16 36
    h24l8 -24l-8 4l-4 16l-16 4l-12 -20l-4 -28h32l12 16l-8 -244l-4 16l-32 -16l-64 -72l-28 -44l36 8v36l32 16l-4 16l16 20l36 8l4 8l4 -56l-32 -4l-4 -12h36l-44 -8l4 -8h32l-40 -4l4 -12h44l-44 -4v-8l52 -4l-36 -8l4 -8h20l8 -8l-8 -4l12 -72l12 -16
    c2 -15.333 11.333 -23.333 28 -24l32 -48l-40 -108v-28l-16 -56l4 -28l20 -52h-352l28 44l-40 28c-14.667 -5.33301 -25.334 -18.666 -32.001 -39.999l-24 -36l28 60l48 32v52l4 -8l24 -12l-8 32l-8 4l-8 -12v44l-8 -4l-72 -168l-20 -8l-4 16l8 4v-12h8v12l-8 8l-16 -8v-24
    l-8 4l16 32l24 -8l16 32l-28 20c-20.667 5.33301 -31.334 20 -32.001 44l-8 36l8 12h12l8 28l-36 136l-4 144l88 -84l-24 28l20 112l28 44l64 44l-20 -4l-40 -28l-44 -68v128l-12 -68v-148l-12 4l-48 48v304l64 36l12 16h20l48 -20l24 -24l16 -44l28 8l-32 -12v-160l-16 4
    l-8 -8l8 -56l8 12v36h8v-44l-40 -224c-14 -0.666992 -24.667 -8.66699 -32 -24l-16 -8l-12 20l-24 -16l-36 52h-12l16 -56l40 -20l20 8l12 -8l32 16l4 32v-40l40 48l44 12l-8 16l16 40h8l-12 -56h24v40l16 -12v-16l12 -4l12 12l4 40h-20l-20 -12l12 216l32 20l64 72l64 92
    l-32 -12v-24l-44 -20l8 -20c-6.66699 -15.333 -18.667 -24.666 -36 -27.999v-28l-16 -12l-40 -8v48l36 8l-16 12l16 4l4 8l-60 4h68l-4 12h-44l44 4v12h-32l16 16l-52 8l28 4l-16 88l-12 20l-32 12l-8 12l20 -4l28 16l-20 -20c14.667 1.33301 26.667 8 36 20l-12 -20l24 12
    l-8 -16l8 8c10 1.33301 16.667 8 20 20l16 -16v12l16 -20l20 -8l-16 24l24 -20h24l8 32l-28 4l4 12l24 -12l-12 28l12 -20l16 8l-12 24l12 -20h16l-20 48l16 -32c4.66699 -12 14 -20 28 -24v-20c-4.66699 -11.333 -14 -18 -28 -20l-12 16
    c1.33301 9.33301 8 14.666 20 15.999l4 -8h-20l4 -16l20 4l4 28h-36l-8 -12c0 -14.667 6.66699 -28 20 -40l48 12l-12 -20l40 20l-8 -16l32 20l-4 -12l16 4l16 20v-8l12 12l8 44l-20 88c10 2 15.333 10 16 24l-12 8h16l-12 -44l24 -88l12 76l4 -12h68l4 20l-56 32l4 36
    l-12 -4l20 52l24 40l16 4l-4 -16v12l-12 -4l4 -16h16l8 28l-16 8zM220.002 1196l4 -16l312 -4l8 20l-40 -8l-36 16l-4 -8l-28 -8l-44 16l-8 -8l-28 -8l-48 16l-32 -16l-40 16zM232.002 1164l296 -4v8l-300 4zM532.002 1156l-8 -12c6.66699 -13.333 20 -20 40 -20l8 4
    c-4.66699 12 -18 21.333 -40 28zM524.002 1132l-0.000976562 -16l28 -12c-1.33301 14 -10.666 23.333 -27.999 28zM620.001 1132v-44l16 -4l-4 44zM640.001 1120v-40h16v32zM312.001 1112l60 -4l8 -16l-60 8zM280.001 1104l-32.001 -3.99902l-4 -28l8 12l28 4l4 -12h12
    c-1.33301 9.33301 -6.66602 18.666 -15.999 27.999zM660 1104v-28h8v28h-8zM448 1096l48 -156l-44 108l-4 32v16zM544 964.001v-28l-44 144zM332 1084h40l12 -24l-44 -4v16h-8v12zM620 1080v-12h12v12h-12zM620 1064l36 -28h20v24l-36 4h-20zM572 1060l4 -12l-20 -28l8 24z
    M216 1048l4 -16l8 8l-16 -68l16 -40h8l-8 -16l-16 -4l-8 12l12 -8l12 12l-12 20l-24 -4l-8 -20l-12 8l16 8v32l28 60v16zM584 1012v-8h68l-4 8h-64zM196 960.001l4 -8l12 56zM280 1008l24 -20v-12l-20 16c-2 4 -3.33301 9.33301 -4 16zM304 1004l16 -12l-16 4v8z
    M580 980.001l-8 -36l28 12h36l32 -16l-8 24h-36l36 12l-72 4h-8zM284 968.001l48 -4l4 -12l-16 8l-40 -4zM188 888.001l-36 12l-12 20h12zM344 916.001l24 -12l-16 -4zM292 908.001c-6 -16.667 -19.332 -26 -39.999 -28l-8 -12l8 -12l16 -84l28 -4v8l84 104l-32 -8
    c-30.667 19.333 -49.334 31.333 -56.001 36zM92.001 888.001h16l32 -20h-32l4 12l-16 4zM184.001 868.001l16 -28l-36 24l-4 16h8zM28.001 856.001h24l-52 -32v24l56 32zM164.001 876.001l12 -12v12h-12zM536.001 864.001l-20 -44l-4 12l12 32h12zM556.001 864.001l8 -16
    l4 8zM104.001 840.001l-68 -44l136 -32v20l-8 4v12l-44 28l4 8h-12zM580.001 836.001l12 -12v8zM216.001 836.001h12l8 -48l-24 36zM216.001 824.001l12 -4l-8 12zM572.001 748.001l8 16h24l12 16h-8l4 8l-44 40zM360.001 828.001l-8 -16l12 8zM172.001 828.001h12l12 -48
    l-24 32v16zM388.001 824.001c-10 -8 -15.333 -20 -16 -36v-8l24 -4l16 8l4 24l-16 4v8zM592.001 816.001l20 -12l-16 20zM420.001 808.001l4 -19.999c12 5.33301 18.667 14.666 20 27.999zM348.001 812.002l-8 -16l12 8zM488.001 812.002h12v-24l-20 -28l4 44z
    M492.001 808.002l-3.99902 -12c5.33301 7.33301 6.66602 11.333 3.99902 12zM84.002 744.002l-32 -16v-8l36 -24l-60 -32l52 8c15.333 11.333 23.333 27.333 24 48v20l-32 40l-36 4zM356.002 784.002l-12 -8l-8 -44l28 4c10 2 16.667 8.66699 20 20
    c-10.667 14.667 -20 24 -28 28zM320.002 776.002l-8 -16l12 8zM104.002 772.002l16 -32v-32l-16 -32l28 4v88l-16 4h-12zM136.002 764.002v-84h8v84h-8zM168.002 760.002v-76l8 4v72h-8zM432.002 756.002l-80 -104l84 -4l4 108h-8zM476.002 748.002l-12 -44l-8 -4l4 48h16z
    M516.002 748.002l-8 -32l-8 -8l-4 20l8 20h12zM588.002 736.002l16 -12l4 20h-16zM564.002 740.002l-4 -24l-20 -36l-16 -16l-4 -56l12 -4l8 20l-8 36l8 16h44l16 24l-8 4l-20 36h-8zM324.002 736.002v-20l-12 -32l20 4l12 16v16h-8c-1.33301 6 -5.33301 11.333 -12 16z
    M672.002 724.002c-0.666992 -15.333 -7.33301 -27.333 -20 -36l12 -48l-12 -8l4 -20l12 -12l-16 -28l4 -16l12 -4l4 20l16 12l-16 44l16 12l-4 20l-12 12l16 40c-2 3.33301 -7.33301 7.33301 -16 12zM264.003 680.002v-40.001h24c15.333 4.66699 23.333 15.334 24 32.001
    l-16 8h-32zM492.003 680.001l-16 -48v48h16zM80.0029 660.001l-4 -100l60 64l32 16l8 28l-4 8zM336.003 660.001l-12 -7.99902v-8c6.66699 3.33301 10.667 8.66602 12 15.999zM28.0029 656.002v-12l-12 -8l-4 -24l16 -24l-20 -16l20 -36l-16 -16v-28l12 -8l16 40v116l8 16
    h-20zM552.003 656.002l4 -20l16 20h-20zM204.003 656.002h8l-4 -44l-12 -8v36zM248.003 652.002l-4 -44l-16 -4v24l12 28zM568.003 588.002l-44 -20v-36l92 16l4 100zM336.003 628.002l-28 -32l-20 -12v-8h68l44 48l-56 4h-8zM232.003 624.002v-16l8 4v12h-8z
    M280.003 608.002l8 -4l8 12zM276.003 604.002l-12 -12l16 8zM468.003 604.002v-20l-20 -28v24l8 20zM504.003 600.002v-16l-20 -32l4 48h16zM220.003 532.002l-12 -4l-4 20l16 28v-44zM132.003 572.002l-12 -16l20 -4v20h-8zM408.003 568.002l-20 -8l-4 -24l48 -8v40h-24z
    M256.003 452.002l16 12l64 84v8l-72 4zM612.003 540.002l-20 -44v-28l12 -12c1.33301 -12 8 -20 20 -24l32 -4l-16 16l-20 8l-8 16l32 16l-36 28l60 36zM568.003 440.002h24l-16 24l4 48l12 24h-24v-96zM100.003 528.002v-28l28 -32l28 64h-48zM552.003 532.002v-88l8 88h-8
    zM520.003 452.002h8v76zM372.003 524.002c-10 -2 -16.667 -8.66699 -20 -20v-16h12l4 -12l16 48h-12zM196.003 508.002l4 -20l-8 -28h-8l-4 20l12 16zM232.003 508.002h8v-28l-8 -24l-12 4l12 40v8zM88.0029 484.002v-20h12l4 12zM324.003 472.002l-8 -8l-4 -20h16v-12
    l16 -4l12 16l4 36zM364.003 468.002l-12 -40l-20 -4l-8 -8l-8 -28l-16 -8l-4 4l-24 -44l-16 4l-4 16l-4 -20l28 -8l84 96l24 36zM252.003 408.002v-12l20 4v20l12 12l20 4l4 28zM388.003 456.002l-12 -7.99902v-8c6.66699 3.33301 10.667 8.66602 12 15.999z
    M80.0029 436.003l4 -12l28 -28v-8l20 -12l-12 68h8v8zM216.003 444.003l-8 -44h-16v16l16 32zM520.003 444.003l8 -28l36 -36l24 -8l44 24l16 16h8l-4 8l-120 20zM368.003 400.003l-4 -12l-52 -60l36 12l24 -8l24 -20v-8l56 28l-24 64v40l-20 4zM268.003 436.003l-12 -16
    l16 8zM308.003 436.003l-32 -20l4 -16h16v-12l12 -4l16 52h-16zM372.003 436.003l-12 -7.99902v-8c6.66699 3.33301 10.667 8.66602 12 15.999zM496.003 432.004l12 -8l16 -36l-12 -8l-16 44v8zM460.003 420.004c12.667 -10 19.333 -26 20 -48h-12l-8 40v8zM508.002 392.004
    l12 -4l-8 12zM468.002 392.004l4 -16l4 12zM176.002 392.004l4 -24l-8 -24h-8c6.66699 23.333 10.667 39.333 12 48zM696.002 364.004l-52 -32l-80 -36l96 52l-24 8l56 28zM496.002 372.004l36 -28.001v-16h-12c-15.333 26.667 -23.333 41.334 -24 44.001zM288.002 340.003
    v-8l24 28zM516.002 344.003l12 -12l-4 12h-8zM596.002 340.003l8 -16l-12 -4l-36 24zM584.002 336.003v-8l12 -4v8zM232.002 328.003l-24.001 -20l8 16c-13.333 -1.33301 -22.666 -9.33301 -27.999 -24l-8 -4l8 20l-24 -8c-14 -6 -22 -19.333 -24 -40l-4 -24l36 -120l4 -48
    h96l-4 48l-28 112l12 -20l28 -144h16l4 32l-20 100l-12 28l24 -44l12 -68l-4 -44l152 -4v32l-12 -8h-28l-20 44l16 72l8 -4l-12 -48l16 4l-8 -12l40 -4v88l12 -60l-8 -72l8 4l20 136l-8 12l-4 -36l-8 72h28l-4 -16l-8 16l-12 -8l8 -20l32 8v24l-8 8h-36l-20 -20l8 16l16 12
    l-20 -4l-20 -32l4 20l12 12l-8 4l-12 -16l8 16l-8 4l-20 -24h-8l-12 16l4 -16l-24 28l-12 4l12 -24l-20 20l-32 -4l-4 -24l12 -12l-4 -12l-8 8l-8 -4l4 36l-12 12h-24l-32 -16v8l16 16h-20zM560.001 296.003l-8 -8l-20 -4l4 8l-28 20v8zM336.001 312.003l4 -8h-12l4 4z
    M268.001 308.003h20v-8h-24l-4 -20l24 -16l-4 -8l20 -36l-20 24c-1.33301 14 -9.33301 22 -24 24v32zM168.001 212.003l16 -28l12 -68l-44 124l4 44zM336.001 268.003l-12 12h12v-12zM28.001 268.003l4 -20l88 -4l4 20l-32 -12l-12 8l-16 -8l-28 16h-8zM116.001 180.003
    l4 -16l8 4l12 36l-12 48zM412.001 256.003l4 -8l-52 -4l-4 12h52zM36.001 240.003v-8l72 -4l8 12h-80zM392.001 216.003v-8l-36 8h36zM44.001 208.003v-8h68v8h-68zM44.001 196.003l-4 -20l56 -36l-12 -40l16 8l16 48l-8 40h-64zM24.001 176.003l-8 -8v-16l52 -8l4 8z
    M356.001 164.003l16 -24l-16 -16l-36 4l-12 20l52 4zM44.001 144.003v-12c6.66699 0 10.667 4 12 12h-12zM64.001 140.003v-12c6.66699 0 10.667 4 12 12h-12zM80.001 136.003l8 -8l4 8l-8 4zM400.001 136.003l8 -28l44 4v16l-44 -4v12h-8zM24.001 132.003l4 -24l8 20z
    M40.001 96.0029l16 -4v36l-12 4zM144.001 132.003l-4 -20l28 -12v20c-12 5.33301 -20 9.33301 -24 12zM60.001 128.003v-44h16l-4 40zM312.001 120.003l68 -12l4 -12l-56 4l-16 12v8zM140.001 100.003l32 -20c-2 14 -11.333 23.333 -28 28zM140.001 88.0029
    l-16.001 -4.00098c4.66699 -13.333 15.334 -22.666 32.001 -27.999h8l4 20c-12.667 6 -22 10 -28 12zM172 40.002h288l-20 8h-272zM160 36.002l-12 -20l40 8l28 -16l60 12l32 -12l8 8h48l20 -12l4 8l48 8l28 -12l8 20l-256 8h-56z"
  />
</defs>
</svg>
