<svg xmlns="http://www.w3.org/2000/svg" version="1.1">
  <path
    d="M160 1216l59.999 -23.998l92 12l60 -20l32 16l60 -16c17.333 2 29.333 12.667 36 32v-20l-20 -16l-80 12l-20 -12l-48 4l-12 12l-36 4l-36 -16l-72 16l16 -28l40 -8h260l12 24l-12 -36l24 -72l-28 64l-20 4l28 -84l8 -48l-40 128l-20 4l-4 -8l-4 8h-20l8 -24l-12 24h-24
    v-8l-28 8l16 -56l-12 20c-0.666992 23.333 -12.667 36.666 -36 39.999l-112 -4l8 -48l36 4l12 -8v20l-36 8l-8 8l20 4l28 -12l4 -20l-8 -32l-4 8h-36v-64h8v-8l12 -4l-16 -8l16 -44l16 -24l64 8l80 56l-24 64l20 -44l32 -32l-32 108l28 -80
    c3.33301 -16.667 14 -31.334 32 -44.001l12 -4l-32 56l-12 72l28 -96c8 -24 22.667 -37.333 44 -40h8l-8 8l4 4l4 -8h48l16 28l4 -8l-20 -28l52 -24l4 8l4 -48h8v112h32v-112h8v100l4 -100h12l-4 248h-8l-24 20l-12 -12c-11.333 -2.66699 -18 -10.667 -20 -24l-4 12l32 28
    l28 -12l16 -16v-244l12 -4v-40l-12 -12v-20l12 12v-8l-12 -12l4 -372l8 -12l-8 8l-4 -20l8 -4l4 -44l-8 4v-36l8 4l-12 -12v-28l-36 -24l-20 8h28l16 12l4 504l-8 -4v-484l-20 -20l-20 8l-4 504l-8 4v-72l-8 4l-64 -88v-60l60 -84h8l-4 24l-12 8l-36 52v52l32 56l24 28
    l4 -440h-20l-60 -32l-4 4l12 12l-52 20l-80 20l-148 -4l-120 -24l48 -4l44 -16l24 4l-20 -8l24 -24l56 40l56 24l-92 -60l-12 -16l12 -12l20 -60l-32 68l-24 20l24 -92l-36 96l-24 16l24 -48l8 -52l-24 72c-6 22.667 -20.667 36 -44 40h-8l4 -8l-24 8l4 -12l-28 4l-12 -12
    l-4 -16l-4 4c0.666992 12 7.33398 22.667 20.001 32l-56 28l-4 40h-12l-4 -120l-4 116v-112l-12 4l-12 40v72h-20v-248l16 -12l-16 8l-4 248l-8 4l4 48l8 12v-56h48v16l4 -12h12v12l-20 4l4 12l16 -4v12h-24l8 4v16l-8 4h8l-4 20l-44 4v-20h24l-24 -8l-12 8l4 400l8 -376h8
    v492l12 8h28l4 -508h12v512l-20 12l24 -12l32 16l-8 -16h8l28 -32l12 -4l8 24l4 -16l-12 -12l48 4l16 -20h12l-4 12l12 8l4 -12l-8 -4v-8l32 8l28 -16h20l8 8l32 8l28 -12l4 20l8 -4l-4 -16l32 16l56 -8l12 12l28 12l-164 -228l20 16l132 176l56 88
    c-10 -2.66699 -16.667 -10.667 -20 -24l-24 -24l8 16l-104 -20h-148l-92 16l-64 32l76 48h-8v-28h40l-4 -8l20 12l-28 168l-48 72zM391.999 1212l-20 -8l-28 8h48zM467.999 1204l12 8l-8 -12h-20l-16 12zM551.999 1148c0.666992 -12.667 7.33301 -23.333 20 -32l12 -20
    l32 -20l-20 8l-44 44l-4 16zM295.998 1136h44l12 -12h-48zM451.998 1132l36 -140l-44 144zM651.998 1136l24 -16.001l-4 -60v56l-12 12c-12.667 -1.33301 -20.667 -8 -24 -20h12l4 8l12 -20v-40h-16l-16 12v48c7.33301 2.66699 14 9.33398 20 20.001zM219.998 984.002
    l-20 -12l8 16l-8 4h12l-8 72zM315.998 1108l32 -8v-20h-52l-4 8c11.333 6 19.333 12.667 24 20zM567.998 1100l36 -36l72 -24v-28l-8 -4l-32 12l-56 52l-12 20v8zM263.998 1040l20 -8v-12l-24 16l4 20v-16zM603.998 1060l24 -28l40 -12v16h-16zM279.998 1048l20 -12l-20 4v8
    zM535.998 996.002l8 4l-4 -20l20 -8h-16l-8 8l-12 44zM327.998 1004h20l-24 -4l-28 8v12zM315.998 996.002v-8l-40 4l-16 -8l4 12h52zM379.998 952.002l64 8v8l-32 16zM139.998 956.002l44 -24l64 -16l120 -8l160 28l-84 20l-88 -12l-52 -24l-40 4l-12 24l-12 8l-40 -12
    c-10.667 4 -18.667 13.333 -24 28zM31.998 944.002h20.001l-20 -8c-15.333 -2 -23.333 -11.333 -24 -28v-96l-8 4l4 112c9.33301 0.666992 18.666 6 27.999 16zM571.999 936.002l-20 -32l28 12l-4 -28l28 36c-7.33301 4 -18 8 -32 12zM39.999 924.002l-16 -8.00098v-492h8
    v492c13.333 4.66699 16 7.33398 8 8.00098zM79.999 908.001c4.66699 -13.333 15.333 -22.667 32 -28l64 -28l76 -12h160l68 12c-0.666992 4.66699 -44.667 2 -132 -8h-88l-128 32l-44 28zM547.998 896l-4 -28h8l16 20l4 16zM475.998 892l-4 -16h-8v24zM543.998 820v-8l60 80
    zM515.998 852l20 8l4 28zM307.998 884v-16h-12l4 20zM639.998 880v-12l-20 4v-8l64 -4v16l-36 4h-8zM555.998 868l-20 -32h8l16 28zM91.998 860l208 -252v8l-176 220c-5.33301 12 -16 20 -32 24zM531.998 856c-13.333 -1.33301 -21.333 -9.33301 -24 -24l-4 -16l24 8l8 24z
    M619.998 848l4 -8h12v-20l8 -4l-8 -4v-12l52 -8v16l-28 4l28 4v16h-8l8 12l-4 12h-32zM135.998 840l12 -16v12zM151.998 836c0.666992 -17.333 11.333 -26.667 32 -28c-1.33301 18 -12 27.333 -32 28zM495.997 835.999l-20 -36l12 4l-20 -16v-24c16 3.33301 25.333 14 28 32
    l-4 12l12 28h-8zM611.997 827.999l-8 -16h8v-16l-16 -4v8l-28 -40l4 -8l4 8c5.33301 14.667 17.333 22.667 36 24l8 16v24zM183.997 823.999l4 -20l16 -12l-12 4l4 -28l28 -12l-8 32h-8l8 8c-6 12.667 -16.667 22 -32 28zM211.997 819.999l100.001 -119.999v-8l20 -24h12
    c-0.666992 11.333 -7.33398 20.666 -20.001 27.999l4 4l16 -16l32 132l-28 -4l-32 -104l-92 112h-12zM383.998 812l-32 -124l100 132zM315.998 720l24 92l-104 4zM503.998 808l-4 -24l8 4l16 28zM159.998 808l31.999 -40l-4 28c-5.33301 5.33301 -14.666 9.33301 -27.999 12
    zM79.9971 792l4 -16h12l24 -28l4 12l-24 28l-8 -8zM663.997 788l-4 -496h8l4 496h-8zM223.997 784l4 -28l16 -8h-12l4 -28l24 -12v28l-12 4l8 8c-14 20 -24.667 32 -32 36zM439.997 752h8l16 16v16zM591.997 776l-16.001 -40.002c-19.333 -5.33301 -30 -18.666 -32 -39.999
    l-8 -8c-14.667 -3.33301 -22.667 -14 -24 -32l8 -16c-10 -8.66699 -15.333 -20.667 -16 -36l16 -32l-4 -24c4.66699 -13.333 15.334 -22.666 32.001 -27.999v-12c5.33301 -15.333 17.333 -26 36 -32l12 -32l20 -4l-20 16v28l-36 16v28l-28 8v48l-16 8l-4 24l20 16l-8 32
    l8 16h24v28l8 16h24v20c0.666992 10 6 18 16 24h12v12zM79.9961 771.998l0.000976562 -8.00098h8l-8 -8l12 -20h8v-8l28 -8l8 -12v-24l20 -4l16 -12v-24l-8 -16l24 -16l-4 -24l-16 -12l4 -32l-8 -12l-20 -8l-8 -32l-24 -4l-4 -36l-24 -8l-4 -12l32 8l16 40l16 4l8 32l28 16
    l-4 -12l-20 -8v-20l-32 -20v-20l-12 -16l-28 -8l-4 -48l56 72h-8l8 20l8 -8l24 36l-4 8l8 8l12 -4l20 52l-8 -4v24l-8 -12l8 36v-24h16l-4 44h-12l-4 24h8v12l-24 32l-4 -12l12 -8l4 -20h-8v8c0 12 -6.66699 18.667 -20 20l-12 8v12c-1.33301 13.333 -9.33301 21.333 -24 24
    l-12 12c-0.666992 18.667 -11.334 29.334 -32.001 32.001zM595.997 759.997l-4 -16l8 -4l16 20l-12 4zM199.997 759.997l27.999 -36v24c-5.33301 4.66699 -14.666 8.66699 -27.999 12zM455.996 751.997c-18 -2.66699 -27.333 -13.333 -28 -32l-4 8l-28 -28l8 -4l16 20l16 -4
    l20 16v24zM547.996 743.998l-16 -28l4 -20l20 48h-8zM131.996 731.998l16 -12l8 -28h12l-24 48h-8zM271.996 703.998l28 -12l-28 36v-24zM567.996 719.998l-8 -20l8 -4l16 24h-16zM79.9961 715.998v-24l12 -8l40 -60v-36l-8 -28l-44 -52v-24l16 12v8l36 40l16 52l-8 40
    l-36 52c-2.66699 10.667 -10.667 20 -24 28zM111.996 715.998v-8l16 -12v20h-16zM439.996 711.998c-9.33301 -2.66699 -14.667 -9.33301 -16 -20v-16l24 36h-8zM243.995 707.999l28 -40l4 20l8 -24l20 -4v16l-12 16h-24v8l-16 4zM415.995 699.999l-24 -12v-28l24 16v24z
    M511.995 695.999l-16 -44h8l4 -20v44l12 16zM587.995 659.999l-16 -48h24l-16 28l16 -12l12 44v-124l-8 36l-16 -12l12 32h-24l4 -32l36 -44l8 4l-4 160zM79.9951 683.999v-168l36 40l12 44l-20 -4l8 -16l-4 -12l-16 16v-44h-8v120h8v-36l20 16c-16 25.333 -28 40 -36 44z
    M367.995 651.999l24 -20l16 28l-24 -8l4 32zM311.995 647.999l-28 12l20 -32l24 20l-4 20h-8l-4 12v-32zM147.995 675.999l4 -20l12 16zM535.995 675.999l-8 -20l8 -8l12 28h-12zM411.995 619.999l-4 -20l48 -52l-8 28l8 96zM347.995 667.999l-48 -64l52 -60l44 56l-16 32
    l-28 32zM243.995 659.999v-120l48 64l-40 52zM179.995 647.999l15.999 -32c-9.33301 6 -14.666 16.667 -15.999 32zM343.994 647.999c10.667 -3.33301 18.667 -11.333 24 -24l16 -16v-8l-32 -40l-36 44zM99.9941 607.999h28l-8 28zM343.994 631.999l-16 -20v-12l8 -4
    c1.33301 -10 8 -15.333 20 -16l16 28c-6.66699 13.333 -16 21.333 -28 24zM487.994 631.999v-48h12l8 -20l-12 -4l24 -44l12 8h-8l-12 16v36l-12 24v28zM515.994 615.999v-16l16 -8v32h-8zM167.994 619.999v-32l16 16l-8 16h-8zM223.994 503.999l-100 -144l-12 -8l-16 -32
    l184 240l20 40zM395.994 591.999l120 -140l68 -92l20 -8l-196 240v8h-8zM387.994 583.999l-8 -16.001l-12 -8l24 -32l-8 32l28 -12l4 4c-16.667 20.667 -26 31.334 -28 32.001zM307.994 579.998l-16 -27.999l24 8l-4 -28l20 20c-0.666992 11.333 -8.66699 20.666 -24 27.999
    zM535.994 539.999l16 -4l-16 32v-28zM159.994 563.999l-12 -28h16l8 16l-4 12h-8zM287.994 543.999l-8 -32l28 16v24zM391.994 551.999c0 -20 10.667 -32 32 -36c0 20.667 -10.667 32.667 -32 36zM339.994 543.999l-200 -264l-4 -16h8l24 36l12 8l-8 -12l116 20h144l80 -16
    l76 -32l4 16l-24 16c-7.33301 12 -19.333 20 -36 24l-36 -4l-16 20l-56 -8l-24 20l-52 -16l-32 12l8 -16l-12 -8v24l-24 -8l-4 -8l-40 8l-56 -20l160 220zM359.994 543.999l-4.00098 -12.002l96 -116c6.66699 -13.333 17.334 -22.666 32.001 -27.999l-112 148
    c-5.33301 4.66699 -9.33301 7.33398 -12 8.00098zM423.993 539.997c0 -20.667 10.668 -34 32.001 -40c-10.667 20.667 -21.334 34 -32.001 40zM247.994 495.997l28 12v24zM319.994 399.997l28 -4l28 112l-12 8l-4 12zM339.994 519.997l-96 -132l68 8l32 120z
    M535.994 491.997l20 -24l16 4l-24 20l-12 28v-28zM563.994 519.997l12 -28l12 4c-3.33301 11.333 -11.333 19.333 -24 24zM115.994 491.997h12l8 24zM291.994 507.997c-13.333 -4 -20 -14.667 -20 -32l24 40zM403.994 507.997l28 -28l-4 28l-20 8zM431.994 503.997
    c0.666992 -20 11.333 -33.333 32 -40l-12 36zM263.993 499.997l-24 -24v-16l24 8l8 32h-8zM379.993 491.997l-20 -92l100 -4l-72 88v8h-8zM463.993 491.997l12.001 -60.001l20 -16h12l-4 16l-24 24l16 -4v8c-18.667 20.667 -29.334 31.334 -32.001 32.001zM211.994 443.996
    l20 8l4 28zM599.994 475.996l-4 -12l24 -8l-12 12v8h-8zM95.9941 471.996l-12 -24h12l8 8v16h-8zM447.994 451.996h8l16 -20l-4 24l-20 8v-12zM251.994 459.996l-16 -20v-16l24 36h-8zM571.994 455.996l24 -36l16 8v-8h8v12l-36 16v8h-12zM227.994 447.996
    c-17.333 -4.66699 -26.667 -18 -28 -40l28 12l4 28h-4zM511.993 411.996l28 -12l-28 36v-24zM171.993 391.996l-8 -36l8 4c12.667 4 20.667 14.667 24 32l-8 8h8l4 32zM507.993 387.996l36 -12.001v8c-4 10.667 -13.333 17.334 -28 20.001l-4 -12v12l-32 16z
    M611.993 399.995h8v12l-16 4zM99.9932 419.995v-12l-16 -8l8 16zM547.993 387.995v-12l16 -4c-2.66699 6 -8 11.333 -16 16zM135.993 343.995h8l16 16v16zM219.993 359.995l-4 -8l140 16l104 -4l64 -12l96 -48l-4 12l-76 36l-104 20l-88 4zM159.993 347.995v-28l24 40z
    M127.993 327.995l-4 -19.999h12c10.667 5.33301 16 14.666 16 27.999l4 8zM391.993 343.996l12 -4l-12 -16l-4 8zM471.993 335.996v-16h-12l4 12zM119.993 327.996l-24 -36l28 -16l24 32l-28 -12l4 28zM239.993 327.996l-4 -16h-8l-4 16h16zM547.993 311.996l-12 -16l4 20z
    M639.993 291.996l20 -4l-16 12zM399.993 291.996l24 -0.000976562l16 -12l12 -28l24 16h20l24 -16l4 -12l16 4l-32 -32l-24 4l8 -56v-64l-16 124l8 16h8v-16h24v24l-52 8l20 -172l8 8l8 -32l36 -48v-8l-88 20l-44 -16l-52 20h-28l-24 -12l-68 12l-24 -8l20 16l76 -12l36 12
    l44 -20h40l32 12l68 -16l-16 32l-304 4l-20 -44l20 48v24l-20 60l24 -64l20 -8l-24 88l28 -76l24 -12l-24 56l-12 72l36 -120l24 -8v12l4 -8l24 -4l4 12l28 -8l-8 28l60 -4l8 -8l-48 -4l-12 12c0.666992 -17.333 10 -26.666 28 -27.999l112 4l-4 44h-28l-20 8l-4 -20l8 -8
    l32 -4l12 -8l-48 4l-8 32l12 32v-12h36l-8 72h-16l-20 -12l-4 8l32 12l4 -4v28l-12 24c-4 15.333 -18.667 26 -44 32zM131.993 239.995h8v-20l-8 4v16zM387.993 219.995h40l8 8v-16l-52 4l-4 12zM403.993 199.995v-8l-48 16zM47.9932 195.995l48 -32l32 -44v-8l-60 48l8 4
    l20 -12v8l-12 4l-8 12l-48 20v-20h-8l4 20h24zM411.993 191.995l24 -16v-8l-20 12zM419.993 171.995v-8l-16 8h16zM35.9932 151.995h20v-48l-16 -8l-8 12l4 36v8zM75.9932 139.995l20 -12l-16 8v-56l-24 -20l16 16l4 56v8zM407.993 127.995v-8l-28 -16l-28 8l-8 12l24 8z
    M99.9932 127.995l12 -12l-8 4zM147.993 59.9951l-16 32l12 -12zM231.993 11.9951l28 -12h-40z"
  />
</svg>
