<svg xmlns="http://www.w3.org/2000/svg" version="1.1">
  <path
    d="M224 1204l3.99902 8.00098l48 -8l36 8l40 -8l52 8l32 -8l44 8l8 -8h52l20 8l-24 -52l40 -24c10.667 2.66699 17.334 10.667 20.001 24c10 8.66699 16.667 22 20 40l20 12c-12.667 -8.66699 -20.667 -22 -24 -40l-8 -8c-5.33301 -20.667 -21.333 -35.334 -48 -44.001
    l4 -32l-36 24v-16l-8 40h-92v-24l28 -120l-16 24l-16 60v60h-24l16 -120l-20 48v72h-152l4 -32l8 8h36l12 -56l-20 -8l4 12h-44v-64l-8 52l8 56l-16 -20l12 56l-28 64h16zM659.999 1212l8.00293 -8.00098v-20l-16 -16l-24 8l-12 -32l56 -40v-24l12 -40l-28 -16l32 -156
    l8 -144l-72 72v-68l-20 -76l-44 -48l-36 -20l8 -4l44 24l8 16h8l36 60l-4 -120l8 -12l4 220l60 -56v-304l-76 -48l-48 8l-48 44l-8 32h-12l8 4l4 80h-32l32 4v120l44 264l4 -28l24 28l12 4l20 -16l8 12h12l20 -24v-8l24 -20l-4 32
    c-2.66699 16.667 -13.334 28.667 -32.001 36l-24 8h-28l-28 -12l-4 -8v16l-12 -24l-72 -40l8 -12l-12 4v-12l8 4l-16 -40l-4 28l8 28h-20v-12l-4 12h-36l-8 -12h-8l16 16l-4 4l-44 -44v-8l16 16l-68 -100l12 -4l12 12c0 15.333 6.66699 27.333 20 36l12 -4l12 40l20 4l16 36
    h24l8 -24l-8 4l-4 16l-16 4l-12 -20l-4 -28h32l12 16l-8 -244l-4 16l-32 -16l-64 -72l-28 -44l36 8v36l32 16l-4 16l16 20l36 8l4 8l4 -56l-32 -4l-4 -12h36l-44 -8l4 -8h32l-40 -4l4 -12h44l-44 -4v-8l52 -4l-36 -8l4 -8h20l8 -8l-8 -4l12 -72l12 -16
    c2 -15.333 11.333 -23.333 28 -24l32 -48l-40 -108v-28l-16 -56l4 -28l20 -52h-352l28 44l-40 28c-14.667 -5.33301 -25.334 -18.666 -32.001 -39.999l-24 -36l28 60l48 32v52l4 -8l24 -12l-8 32l-8 4l-8 -12v44l-8 -4l-72 -168l-20 -8l-4 16l8 4v-12h8v12l-8 8l-16 -8v-24
    l-8 4l16 32l24 -8l16 32l-28 20c-20.667 5.33301 -31.334 20 -32.001 44l-8 36l8 12h12l8 28l-36 136l-4 144l88 -84l-24 28l20 112l28 44l64 44l-20 -4l-40 -28l-44 -68v128l-12 -68v-148l-12 4l-48 48v304l64 36l12 16h20l48 -20l24 -24l16 -44l28 8l-32 -12v-160l-16 4
    l-8 -8l8 -56l8 12v36h8v-44l-40 -224c-14 -0.666992 -24.667 -8.66699 -32 -24l-16 -8l-12 20l-24 -16l-36 52h-12l16 -56l40 -20l20 8l12 -8l32 16l4 32v-40l40 48l44 12l-8 16l16 40h8l-12 -56h24v40l16 -12v-16l12 -4l12 12l4 40h-20l-20 -12l12 216l32 20l64 72l64 92
    l-32 -12v-24l-44 -20l8 -20c-6.66699 -15.333 -18.667 -24.666 -36 -27.999v-28l-16 -12l-40 -8v48l36 8l-16 12l16 4l4 8l-60 4h68l-4 12h-44l44 4v12h-32l16 16l-52 8l28 4l-16 88l-12 20l-32 12l-8 12l20 -4l28 16l-20 -20c14.667 1.33301 26.667 8 36 20l-12 -20l24 12
    l-8 -16l8 8c10 1.33301 16.667 8 20 20l16 -16v12l16 -20l20 -8l-16 24l24 -20h24l8 32l-28 4l4 12l24 -12l-12 28l12 -20l16 8l-12 24l12 -20h16l-20 48l16 -32c4.66699 -12 14 -20 28 -24v-20c-4.66699 -11.333 -14 -18 -28 -20l-12 16
    c1.33301 9.33301 8 14.666 20 15.999l4 -8h-20l4 -16l20 4l4 28h-36l-8 -12c0 -14.667 6.66699 -28 20 -40l48 12l-12 -20l40 20l-8 -16l32 20l-4 -12l16 4l16 20v-8l12 12l8 44l-20 88c10 2 15.333 10 16 24l-12 8h16l-12 -44l24 -88l12 76l4 -12h68l4 20l-56 32l4 36
    l-12 -4l20 52l24 40l16 4l-4 -16v12l-12 -4l4 -16h16l8 28l-16 8zM220.002 1196l4 -16l312 -4l8 20l-40 -8l-36 16l-4 -8l-28 -8l-44 16l-8 -8l-28 -8l-48 16l-32 -16l-40 16zM232.002 1164l296 -4v8l-300 4zM532.002 1156l-8 -12c6.66699 -13.333 20 -20 40 -20l8 4
    c-4.66699 12 -18 21.333 -40 28zM524.002 1132l-0.000976562 -16l28 -12c-1.33301 14 -10.666 23.333 -27.999 28zM620.001 1132v-44l16 -4l-4 44zM640.001 1120v-40h16v32zM312.001 1112l60 -4l8 -16l-60 8zM280.001 1104l-32.001 -3.99902l-4 -28l8 12l28 4l4 -12h12
    c-1.33301 9.33301 -6.66602 18.666 -15.999 27.999zM660 1104v-28h8v28h-8zM448 1096l48 -156l-44 108l-4 32v16zM544 964.001v-28l-44 144zM332 1084h40l12 -24l-44 -4v16h-8v12zM620 1080v-12h12v12h-12zM620 1064l36 -28h20v24l-36 4h-20zM572 1060l4 -12l-20 -28l8 24z
    M216 1048l4 -16l8 8l-16 -68l16 -40h8l-8 -16l-16 -4l-8 12l12 -8l12 12l-12 20l-24 -4l-8 -20l-12 8l16 8v32l28 60v16zM584 1012v-8h68l-4 8h-64zM196 960.001l4 -8l12 56zM280 1008l24 -20v-12l-20 16c-2 4 -3.33301 9.33301 -4 16zM304 1004l16 -12l-16 4v8z
    M580 980.001l-8 -36l28 12h36l32 -16l-8 24h-36l36 12l-72 4h-8zM284 968.001l48 -4l4 -12l-16 8l-40 -4zM188 888.001l-36 12l-12 20h12zM344 916.001l24 -12l-16 -4zM292 908.001c-6 -16.667 -19.332 -26 -39.999 -28l-8 -12l8 -12l16 -84l28 -4v8l84 104l-32 -8
    c-30.667 19.333 -49.334 31.333 -56.001 36zM92.001 888.001h16l32 -20h-32l4 12l-16 4zM184.001 868.001l16 -28l-36 24l-4 16h8zM28.001 856.001h24l-52 -32v24l56 32zM164.001 876.001l12 -12v12h-12zM536.001 864.001l-20 -44l-4 12l12 32h12zM556.001 864.001l8 -16
    l4 8zM104.001 840.001l-68 -44l136 -32v20l-8 4v12l-44 28l4 8h-12zM580.001 836.001l12 -12v8zM216.001 836.001h12l8 -48l-24 36zM216.001 824.001l12 -4l-8 12zM572.001 748.001l8 16h24l12 16h-8l4 8l-44 40zM360.001 828.001l-8 -16l12 8zM172.001 828.001h12l12 -48
    l-24 32v16zM388.001 824.001c-10 -8 -15.333 -20 -16 -36v-8l24 -4l16 8l4 24l-16 4v8zM592.001 816.001l20 -12l-16 20zM420.001 808.001l4 -19.999c12 5.33301 18.667 14.666 20 27.999zM348.001 812.002l-8 -16l12 8zM488.001 812.002h12v-24l-20 -28l4 44z
    M492.001 808.002l-3.99902 -12c5.33301 7.33301 6.66602 11.333 3.99902 12zM84.002 744.002l-32 -16v-8l36 -24l-60 -32l52 8c15.333 11.333 23.333 27.333 24 48v20l-32 40l-36 4zM356.002 784.002l-12 -8l-8 -44l28 4c10 2 16.667 8.66699 20 20
    c-10.667 14.667 -20 24 -28 28zM320.002 776.002l-8 -16l12 8zM104.002 772.002l16 -32v-32l-16 -32l28 4v88l-16 4h-12zM136.002 764.002v-84h8v84h-8zM168.002 760.002v-76l8 4v72h-8zM432.002 756.002l-80 -104l84 -4l4 108h-8zM476.002 748.002l-12 -44l-8 -4l4 48h16z
    M516.002 748.002l-8 -32l-8 -8l-4 20l8 20h12zM588.002 736.002l16 -12l4 20h-16zM564.002 740.002l-4 -24l-20 -36l-16 -16l-4 -56l12 -4l8 20l-8 36l8 16h44l16 24l-8 4l-20 36h-8zM324.002 736.002v-20l-12 -32l20 4l12 16v16h-8c-1.33301 6 -5.33301 11.333 -12 16z
    M672.002 724.002c-0.666992 -15.333 -7.33301 -27.333 -20 -36l12 -48l-12 -8l4 -20l12 -12l-16 -28l4 -16l12 -4l4 20l16 12l-16 44l16 12l-4 20l-12 12l16 40c-2 3.33301 -7.33301 7.33301 -16 12zM264.003 680.002v-40.001h24c15.333 4.66699 23.333 15.334 24 32.001
    l-16 8h-32zM492.003 680.001l-16 -48v48h16zM80.0029 660.001l-4 -100l60 64l32 16l8 28l-4 8zM336.003 660.001l-12 -7.99902v-8c6.66699 3.33301 10.667 8.66602 12 15.999zM28.0029 656.002v-12l-12 -8l-4 -24l16 -24l-20 -16l20 -36l-16 -16v-28l12 -8l16 40v116l8 16
    h-20zM552.003 656.002l4 -20l16 20h-20zM204.003 656.002h8l-4 -44l-12 -8v36zM248.003 652.002l-4 -44l-16 -4v24l12 28zM568.003 588.002l-44 -20v-36l92 16l4 100zM336.003 628.002l-28 -32l-20 -12v-8h68l44 48l-56 4h-8zM232.003 624.002v-16l8 4v12h-8z
    M280.003 608.002l8 -4l8 12zM276.003 604.002l-12 -12l16 8zM468.003 604.002v-20l-20 -28v24l8 20zM504.003 600.002v-16l-20 -32l4 48h16zM220.003 532.002l-12 -4l-4 20l16 28v-44zM132.003 572.002l-12 -16l20 -4v20h-8zM408.003 568.002l-20 -8l-4 -24l48 -8v40h-24z
    M256.003 452.002l16 12l64 84v8l-72 4zM612.003 540.002l-20 -44v-28l12 -12c1.33301 -12 8 -20 20 -24l32 -4l-16 16l-20 8l-8 16l32 16l-36 28l60 36zM568.003 440.002h24l-16 24l4 48l12 24h-24v-96zM100.003 528.002v-28l28 -32l28 64h-48zM552.003 532.002v-88l8 88h-8
    zM520.003 452.002h8v76zM372.003 524.002c-10 -2 -16.667 -8.66699 -20 -20v-16h12l4 -12l16 48h-12zM196.003 508.002l4 -20l-8 -28h-8l-4 20l12 16zM232.003 508.002h8v-28l-8 -24l-12 4l12 40v8zM88.0029 484.002v-20h12l4 12zM324.003 472.002l-8 -8l-4 -20h16v-12
    l16 -4l12 16l4 36zM364.003 468.002l-12 -40l-20 -4l-8 -8l-8 -28l-16 -8l-4 4l-24 -44l-16 4l-4 16l-4 -20l28 -8l84 96l24 36zM252.003 408.002v-12l20 4v20l12 12l20 4l4 28zM388.003 456.002l-12 -7.99902v-8c6.66699 3.33301 10.667 8.66602 12 15.999z
    M80.0029 436.003l4 -12l28 -28v-8l20 -12l-12 68h8v8zM216.003 444.003l-8 -44h-16v16l16 32zM520.003 444.003l8 -28l36 -36l24 -8l44 24l16 16h8l-4 8l-120 20zM368.003 400.003l-4 -12l-52 -60l36 12l24 -8l24 -20v-8l56 28l-24 64v40l-20 4zM268.003 436.003l-12 -16
    l16 8zM308.003 436.003l-32 -20l4 -16h16v-12l12 -4l16 52h-16zM372.003 436.003l-12 -7.99902v-8c6.66699 3.33301 10.667 8.66602 12 15.999zM496.003 432.004l12 -8l16 -36l-12 -8l-16 44v8zM460.003 420.004c12.667 -10 19.333 -26 20 -48h-12l-8 40v8zM508.002 392.004
    l12 -4l-8 12zM468.002 392.004l4 -16l4 12zM176.002 392.004l4 -24l-8 -24h-8c6.66699 23.333 10.667 39.333 12 48zM696.002 364.004l-52 -32l-80 -36l96 52l-24 8l56 28zM496.002 372.004l36 -28.001v-16h-12c-15.333 26.667 -23.333 41.334 -24 44.001zM288.002 340.003
    v-8l24 28zM516.002 344.003l12 -12l-4 12h-8zM596.002 340.003l8 -16l-12 -4l-36 24zM584.002 336.003v-8l12 -4v8zM232.002 328.003l-24.001 -20l8 16c-13.333 -1.33301 -22.666 -9.33301 -27.999 -24l-8 -4l8 20l-24 -8c-14 -6 -22 -19.333 -24 -40l-4 -24l36 -120l4 -48
    h96l-4 48l-28 112l12 -20l28 -144h16l4 32l-20 100l-12 28l24 -44l12 -68l-4 -44l152 -4v32l-12 -8h-28l-20 44l16 72l8 -4l-12 -48l16 4l-8 -12l40 -4v88l12 -60l-8 -72l8 4l20 136l-8 12l-4 -36l-8 72h28l-4 -16l-8 16l-12 -8l8 -20l32 8v24l-8 8h-36l-20 -20l8 16l16 12
    l-20 -4l-20 -32l4 20l12 12l-8 4l-12 -16l8 16l-8 4l-20 -24h-8l-12 16l4 -16l-24 28l-12 4l12 -24l-20 20l-32 -4l-4 -24l12 -12l-4 -12l-8 8l-8 -4l4 36l-12 12h-24l-32 -16v8l16 16h-20zM560.001 296.003l-8 -8l-20 -4l4 8l-28 20v8zM336.001 312.003l4 -8h-12l4 4z
    M268.001 308.003h20v-8h-24l-4 -20l24 -16l-4 -8l20 -36l-20 24c-1.33301 14 -9.33301 22 -24 24v32zM168.001 212.003l16 -28l12 -68l-44 124l4 44zM336.001 268.003l-12 12h12v-12zM28.001 268.003l4 -20l88 -4l4 20l-32 -12l-12 8l-16 -8l-28 16h-8zM116.001 180.003
    l4 -16l8 4l12 36l-12 48zM412.001 256.003l4 -8l-52 -4l-4 12h52zM36.001 240.003v-8l72 -4l8 12h-80zM392.001 216.003v-8l-36 8h36zM44.001 208.003v-8h68v8h-68zM44.001 196.003l-4 -20l56 -36l-12 -40l16 8l16 48l-8 40h-64zM24.001 176.003l-8 -8v-16l52 -8l4 8z
    M356.001 164.003l16 -24l-16 -16l-36 4l-12 20l52 4zM44.001 144.003v-12c6.66699 0 10.667 4 12 12h-12zM64.001 140.003v-12c6.66699 0 10.667 4 12 12h-12zM80.001 136.003l8 -8l4 8l-8 4zM400.001 136.003l8 -28l44 4v16l-44 -4v12h-8zM24.001 132.003l4 -24l8 20z
    M40.001 96.0029l16 -4v36l-12 4zM144.001 132.003l-4 -20l28 -12v20c-12 5.33301 -20 9.33301 -24 12zM60.001 128.003v-44h16l-4 40zM312.001 120.003l68 -12l4 -12l-56 4l-16 12v8zM140.001 100.003l32 -20c-2 14 -11.333 23.333 -28 28zM140.001 88.0029
    l-16.001 -4.00098c4.66699 -13.333 15.334 -22.666 32.001 -27.999h8l4 20c-12.667 6 -22 10 -28 12zM172 40.002h288l-20 8h-272zM160 36.002l-12 -20l40 8l28 -16l60 12l32 -12l8 8h48l20 -12l4 8l48 8l28 -12l8 20l-256 8h-56z"
  />
</svg>
