<svg xmlns="http://www.w3.org/2000/svg" version="1.1">
  <path
    d="M272 1216l32.001 -0.000976562l-20 -16v-8l28 16l-24 -16l12 -48l24 4l20 -8v12l-12 12l-28 4h32l12 -44h-48l4 -68l32 -84l-20 -4l-16 -12l-4 -12l132 -12l84 16l-4 8h-12l4 12l-20 44l-8 4l-28 -24l24 24v40l32 -76l52 -64v-8h8l32 -32l64 -28h20l-4 8l-104 60l-40 44
    l-20 32l-40 108l56 -124l28 -32l52 -28l-24 24v8l-24 12l-28 28l-20 48l32 -44l-44 92l-8 -8l-20 56l-24 28l-4 56h24l16 -28l120 -128l28 -16l-28 -20l12 -24l32 -32l68 -48v-56l-24 12l-132 140l-76 128l32 -88l80 -120l92 -84h28l-4 -12l-36 -8l-132 -52l-116 -76l76 -12
    l164 56h48v-8h-12l8 -8l4 -104l-12 -8l4 -16l-8 -12l8 -4l4 12l4 -48l-12 -28v-68l-4 72h-8l-16 -28l-68 -72l16 -36l20 -16l-4 40l32 16c13.333 0 21.333 -10.667 24 -32l4 8v-32l-16 -4l4 12l-12 32l-12 -4v-8l-8 4l-4 -16l12 -28l-8 -8v20l-4 -24h-8v-16l40 -36v-28
    l-12 20l12 -4l-12 20l-4 -8l-32 12l-4 20h-8v-36l-24 12v-28l-16 -4l-4 28h-16v-20l-4 24l8 16l8 -12l16 4l4 20l-20 4l-8 -8l8 12h16l4 -8h24l-20 16c-3.33301 8 -10 12 -20 12l12 4l20 -16v8l16 -8v8l-24 20l-36 -4l4 -12l-16 -12l-4 12l-56 -44l4 -100l-56 -132l-4 -88
    h-32l20 20l-44 -20l16 16c13.333 0.666992 21.333 7.33398 24 20.001l-8 36l-36 -4l-4 -8l8 -8l24 -4l-8 -4c-20 0 -30.667 9.33301 -32 28l-4 20l12 32l-4 -32h44l-4 60l-32 92l28 16l-8 4h20v8l-80 12l-100 -4l-36 -8l4 -12l48 8l-40 -8l20 -56l84 52l-80 -60l16 -68
    l-44 108l-52 72l-84 56l-36 4l36 -32l72 -36l36 -36l28 -52l56 -152v12l12 -24c7.33301 -13.333 20.666 -21.333 39.999 -24l44 -20l-12 -4l-36 16l12 -12l-12 -4l-16 8l4 -8h-12l-20 16l-4 -16h-20l-104 128l-32 28c-10.667 10.667 -24 16 -40 16l-20 -4l28 -84l-4 -48
    l-12 -32l-4 12l8 16v92l-32 52h44l36 20l-68 72l-44 28v52l48 -28l4 -12l36 -28l40 -44l100 -152l-8 32l-60 108l-112 124l-40 20l-8 -4v16l84 20l88 40l108 76l-68 12l-144 -56l-64 -4l-4 12l8 4l-8 4v100l12 4l8 32l-8 4l-4 -12h-8v52l8 4v24l4 -12l92 104v8l116 104
    l-8 36l4 64l20 60l40 88l-4 60v8zM352.001 1216l68 -32l-64 24zM380.001 1216h12l32 -16l16 -20c-32 18 -52 30 -60 36zM412.001 1216c10.667 -0.666992 20 -7.33301 28 -20l-24 16zM492.001 1216h16l16 -24l28 -16v32l8 -32l56 40l-44 -52l20 -8h-24l4 -20l24 -36l36 -28
    l-8 -4l-32 16l-20 20l-20 60l-36 12l-24 32v8zM652.001 1200l-12 -32l8 40zM368.001 1176l48 -8l12 -8l-60 8v8zM228.001 1020l-12 -64l8 -44l16 8l4 56l16 60l28 52v68zM504.001 1140l88 -112l20 12l-104 108zM380.001 1148l44 -4l4 -16l-12 4v-8h-40l4 12h-8
    c4 1.33301 6.66699 5.33301 8 12zM648.001 1084l28 -44l-36 8h24l-12 20zM372.001 1068l-20 -4l4 -12l-24 20zM492.001 1072l12 -24c-5.33301 6 -9.33301 14 -12 24zM284.001 1032l-16 -76l12 -8l4 8l40 20l-28 84zM336.001 1032l48 -4v-12l-8 8h-36l-4 -8l-4 4zM48.001 924
    h-8l-4 8l-12 -4l4 16zM120.001 944l16 -4l-8 -20h28v-16l-8 -8l-8 8l-24 -4v-16h-16l-8 -8l48 -24l16 8v-12l-28 -4l-8 12l-24 12l16 -16l-20 12l-4 -4l8 -12l24 -12l-28 8l-16 20l12 -32l-20 8l8 -36l-20 -12l-28 -4l-12 32l-4 -56v72l16 12l-4 -12h-12l16 -36l8 4l16 -8
    l-4 16l8 -4v52l4 -20l8 12l-4 12l8 16l-8 20l-8 -4l4 8l-16 12l28 -12l-16 16l16 -4l8 -24l8 -4l8 20l-4 12l8 -8h16v24h-8zM236.001 904l64 -20l52 -8h92l64 8l40 12l-24 28l-16 -28l-20 12l-12 16l-40 -36l-28 28l-16 -4l-12 -20l-20 -4v8h-8
    c-1.33301 14 -9.33301 22 -24 24l-24 -24l-24 16v16l-12 8zM252.001 896l20 -36l8 -4l44 -96l-4 32l-36 80c-8 12 -18.667 20 -32 24zM192.001 872c3.33301 -12.667 12.667 -22 28 -28l68 -84l-48 84l-40 36zM476.002 880c-13.333 -6.66699 -22.667 -17.333 -28 -32l-60 -92
    l-12 -40l48 80l76 84h-24zM568.001 880.001l-48 -32l-92 -96l-8 -20l72 72l80 56h8l4 12zM356.001 848.001h-8l-4 -16l16 -4v-8l24 12l-12 12l-4 20zM176.001 856.001l-4.00098 -12l44 -32l60 -68c2 -12 10 -20 24 -24l-72 96c-21.333 22 -38.666 35.333 -51.999 40z
    M572 840.001l-104 -72l-28 -28l8 -4l24 24l124 68l36 12l-24 12zM712 824.001v-44l-112 -20l-116 -36l4 12l76 40l132 44zM352 808.001v-12l-12 -8l4 -12h12l4 -8l4 8l16 4l-4 12h-8v16h-16zM160 804.001l-4 -11.999h-12l-8 -8c1.33301 -10.667 8 -17.334 20 -20.001l8 16
    l-4 4l12 16zM212 784.002l-8 -16l-28 -16l4 -16l44 -4v-16l-8 -4c-18 -1.33301 -27.333 -8 -28 -20l32 -8l4 -24l-44 -4l16 -24l16 -8v-16h-52l8 -24h8l8 -32l44 92v100l-16 32v8zM224 768.002l16 -87.999l-20 -84l-76 -88l36 16l-4 4l36 44l32 88l-8 88l16 -16l4 8
    c-12 15.333 -22.667 24.666 -32 27.999zM564 768.003l-32 -20l40 8l4 8zM212 760.003v-8l-20 -4v8h8zM352 744.003h-8l12 -16l12 4l-8 24zM104 740.003l-4 -12h-16v-16l20 -4v16l12 16h-12zM596 720.003l-76 -56l-36 -68l-8 -92l24 -76l4 20l12 12l-20 4l20 8v-12l20 8
    l-4 12l-44 4v20l36 12l-4 12l-24 4l-12 12v12l44 8l-16 24l-16 8l8 20l40 -8l4 20l-24 24l8 16l52 -16v12l-12 16l4 24h20l28 -24l4 44l20 4l20 -36l12 4v20l12 24h-32zM152 728.003c-12 -5.33301 -18.667 -14.667 -20 -28l24 -36l8 4l-8 64zM256 724.002l60 -92v-24l12 4
    l-28 64l-40 56zM240 620.002l-16 -44l-24 -28l8 -4l104 72l-56 104zM604 720.002l16 -20l-8 -4l-8 16v8zM532 700.002v-16l28 24zM52 668.002l-12 4v-24l20 4l-4 16l12 16h-12zM480 672.002l16 8h-12zM552 684.002l7.99902 0.000976562l8 -16
    c-7.33301 1.33301 -12.666 6.66602 -15.999 15.999zM99.999 676.003l-40 -55.999l28 -12c16.667 1.33301 28.667 10.666 36 27.999v24l-12 16h-12zM459.999 652.004l-64 -52l24 -52l36 -44l8 76l20 60l20 32h-8zM667.999 672.004l-64 -28h36l36 -16l24 44l-12 -4z
    M331.999 668.004l-12 -12v-16l12 -24h8v-12l-4 8l-32 -24l8 -24h12l16 12l4 16l16 -32l16 -12l16 12l-16 48l28 20l-8 24l-40 -24l-12 40h-12zM275.999 664.004l20 -52l-44 -24l16 80zM199.999 648.004l20 -4v-8l-24 4zM531.999 632.004v-8l-20 8h20zM383.999 612.004v-20
    l28 -52l4 8l-28 56l16 16h8v8zM447.999 628.004h12l-16 -76l-28 32c12 17.333 22.667 32 32 44zM611.999 612.004c-16.667 -6.66699 -26 -20 -28 -40l8 -24l20 -4l36 56l-16 12h-20zM479.999 608.004c-2.66699 -6 -1.33301 -6 4 0h-4zM176 596.004l20 -4v-8l-20 4v8z
    M36 588.004l-28 -32v-8l60 4l20 16l-44 20h-8zM488 580.004h24.001l-4 -12c-6.66699 1.33301 -13.334 5.33301 -20.001 12zM128.001 568.004l-4 -12l12 -32l-16 -12l-32 28l-8 -4l4 -40l-8 -8l-16 4l-16 32h-8l-8 -36l-12 -4l4 -8l92 20l64 44l4 12h-20l-20 12z
    M472.001 472.004l-8 -4l16 -20l-8 48v-24zM660.001 568.004l-8 -12v-28l12 16h12l4 16c-4 5.33301 -10.667 8 -20 8zM544.001 516.004l8 -28l16 8l12 16l-28 52zM140.001 552.004l16 -16l-16 8v8zM416.001 532.004l16 -16l-12 24zM508.001 524.004l-4 -8h-20v8h24z
    M88.001 520.004h11.999l4 -20c-7.33301 4 -12.666 10.667 -15.999 20zM604 496.004l4 -8l-8 -4v-12l32 16v12h-8l-4 12zM276 404.004l-64 -60l4 -12l-52 -8l20 -28l8 20l20 4l12 -16l24 -8l12 32h20l24 -28c10 2 16.667 8.66699 20 20l8 8h20l20 -32l32 24h16l12 -36l16 4v8
    l28 16l-44 16l-64 12h-128l60 80l36 88zM36 508.004h8.00098v-24c-4.66699 5.33301 -7.33398 13.333 -8.00098 24zM444.001 404.004l60 -64l16 12l-20 12l-48 52l-52 80zM412.001 500.004l23.999 -44l92 -96l12 16l-16 4c-61.333 72 -98.666 112 -111.999 120zM352 484.004
    l-8 4l-4 -12l12 -12l12 20h-8v8zM228 492.004v-8l-180 -80l-48 -8v44l44 4l164 44zM256 472.004l-8 4l-8 -16l-144 -76l-12 -12l20 -8l76 36l80 80zM272 468.004l-67.999 -64l-80 -52l24 -12l56 48h8l56 64c5.33301 8 6.66602 13.333 3.99902 16zM152.001 464.004
    l-16.001 -12l12 -4l20 12c-3.33301 2 -8.66602 3.33301 -15.999 4zM388 456.004l-4 -12l44 -96c4 -12 13.333 -20 28 -24l-28 40l-40 84v8zM348 440.004l-12 4l-4 -16l8 -4l4 -16h8l4 16h8l4 12l-16 4v8zM556 448.004l-12 -36l16 4v8h12l4 16c-4 5.33301 -10.667 8 -20 8z
    M596 420.004l-32 -40h48l12 -12v-8l12 -4l-28 60zM676 420.004l12 -40c4 16 0 29.333 -12 40zM344 396.004v-8l-12 4v-20h8l-4 -16h16v16l16 4l-4 12h-12v8h-8zM472 300.004l-4 -56l-12 -48l-32 -68l-4 -64l56 116l16 64l-8 64zM108 304.004l84 -92l48 -120v24l-40 104
    l-84 84h-8zM384 232.004l16 -28l12 -44l8 4l20 80l-4 24h-8zM168 216.004l8 -4l24 -48l4 12l-32 48zM328 196.004l36 -4l12 8l4 -12h-52l-4 16zM112 188.004l-12 -8c0.666992 -10 6 -16.667 16 -20l80 -80v-8h8l-56 76v8c-13.333 18 -25.333 28.667 -36 32zM356 168.004
    l12 -8l8 -16h-16l-12 12h8v12zM80 148.004l40 -20l16 -20l20 -52l36 -20l24 -32l-16 -4l-12 20l-32 16v-28l-8 32l-52 -40l-4 8l28 28c8 0.666992 13.333 6 16 16l-36 12l20 4l20 -8l-28 60l-28 20zM316 96.0039l28 -12l-16 -12h-44v16l12 4zM276 60.0039l24 -8l32 4l12 -16
    l-64 12zM280 32.0039c6 -10.667 15.333 -16 28 -16l-24 16h-4zM272 20.0039l16 -8l-12 16z"
  />
</svg>
