<svg
    xmlns="http://www.w3.org/2000/svg"
    version="1.1"
    width="712"
    height="1216"
    fill="#fff">
  <path
    d="M240 1212l8 -0.000976562v-8l4 8h324l-40 -84l24 -76l-24 -16l-8 -20v-40l-12 -12h-24l8 -12l80 -44l4 8v-16l40 -20v32l20 -4v8l-16 4v16l36 4l-16 -12l4 -4l-8 -44l-16 4l44 -36l36 -20v-164l-108 76l104 -92l-12 4v-8h-8l-28 24l4 -16l-8 -4l-8 8v16l-20 -8l-8 4
    l12 16l-32 12l16 4l-4 8l-24 8v16h8l-28 28h-8l4 -28l40 -64l60 -36l44 -8l4 -36l-36 8v-12l12 -8l24 -44v-172l-128 -60l8 8l-60 48l-40 104l-4 104l-292 -4l-24 20l-4 32l-8 12l-44 16v44l-40 40l16 60l-20 24l8 32h-20l-12 -32l20 -20l4 -20l-20 -32v-16l12 -20
    c20 -5.33301 30.667 -18.666 32 -39.999v-32l52 -28l20 -52h20v8l4 -12h52v-292l92 -28l12 12l-16 -20l-52 20l-72 12l-16 -8v-36l16 8l-32 -40l-20 -12l4 16h12l12 12v48l8 12l32 4l-72 48l8 12l28 180l-20 -60l-24 -124h-12l-40 28l-8 -48l-20 4l4 8l16 -4v12l-16 -4l-8 8
    h8v24l12 -4l4 8l-20 4c-1.33301 10.667 -8 17.334 -20 20.001l-36 24l-4 168l152 -116l4 8l-152 120l16 -4v8h8l28 -28l-4 24l12 -8l4 -20l12 4l4 12h8v-16h-8v-12h28v-8l-12 -4l28 -28l-8 -8l16 -16l20 -8v16l-40 68l-52 40l-64 12v40l36 -12l4 12l-36 52l-4 168l124 60
    c3.33301 -10.667 11.333 -17.334 24 -20.001l16 -12l40 -56l16 -72v-96l300 -4v20l-40 -4l-12 272l4 24l-80 24h-20l-8 -20l-16 -8l-56 4l-4 -296h-52v140l-16 56l-24 40l-32 32l48 20l-8 36l8 12l28 4l-4 88l16 -60l16 -4l-8 72l16 48h-16l-8 -16l-12 68v8zM256 1176
    h140.001l-60 20l-4 -8l-44 -8c-14.667 0.666992 -25.334 8.66699 -32.001 24v-28zM444.001 1200l-16 -8l4 -8l-8 4l-12 -8l60 -4l-12 8h-20v8l36 -4l4 8h-16zM484.001 1192l-4 -16h32l4 8l-16 -4c-4 6 -9.33301 10 -16 12zM536.001 1176h16v8l-16 4v-12zM520.001 1184v-8
    l12 4zM652.001 1168l24 -24v-16l-20 -52l12 44v32l-28 20l-16 -4l-20 -16l8 16l20 4zM400.001 1152l-12 -31.999l4 -40h20l12 -12v-20l-4 16l-24 12l-4 -28l-8 12l4 92h-20l-8 -36v-40c1.33301 -20.667 12 -35.334 32 -44.001l-24 -4l4 12l-12 16l-8 28l4 68h-16l-12 -56
    l16 -56l20 -16l-24 8l-52 -8v-24l-12 -12l8 -20h12l12 52v-52h12v28l8 4l-8 8l12 12l-4 -16l20 4v-12l-16 4l-8 -20l8 -12h20l28 52v-20l108 -32l32 4v36h-12v12l44 28l-4 24l-20 44l12 36h-140zM284.001 1152l-12 -36v-52l12 -32h20l-16 44l12 76h-16zM308.001 1152l-8 -36
    v-56l20 -28l20 4l-16 28l8 88h-24zM652.001 1140v-16c-10 -8 -15.333 -20 -16 -36l-20 -40v28l-16 48l24 -24c6.66699 0 10.667 6.66699 12 20l-16 8l4 20h12zM528.001 1148l-8 -16l-60 -8l4 12l56 8zM516.001 1092h-28l-12 8l40 20v-28zM616.001 1100v-16l12 -4l-4 20h-8z
    M648.001 1072l28 -79.999l-20 -32h36l4 -12l-24 -8l4 8l-84 4v8h20v8l-8 4l4 4l16 -12l20 -4c12.667 5.33301 20.667 14.666 24 27.999l4 4l-16 32l-20 4l-4 -16l20 -12l-4 -20l-32 4l24 72zM644.001 1052l-4 -16l16 -4l-4 20h-8zM480.001 1032l40 8l-4 -8l-32 -8l-12 16
    l8 8v-16zM252.001 1028l-8 -28l-12 -8v-16l8 -8l24 56zM272.001 1028l-20 -48l8 -12h8l16 52l-4 8h-8zM208.001 996.001v-20l16 -8l4 32zM628.001 1000c0 -6.66699 4 -10.667 12 -12v12h-12zM460.001 944.001l-4 -264l-24 -12l16 28l-4 12h-12l-4 -36l-40 -4v52h-16l-4 -44
    l8 -8l-68 4l-4 276l72 -16l76 16zM228.001 904.001l8 -12l32 12v16l-32 16zM420.001 912.001h-80l-28 8l8 -12l104 -4l28 12v8zM500.001 912.001l-4 -20l36 -8l4 16l-12 24h-12zM560.001 912.001l-36 -212l4 -12l40 220zM584.001 892.001l-4 -12l12 -4v16h-8z
    M600.001 864.001l12 -4l8 12l-8 -4v8l-12 4v-16zM424.001 876.001l3.99902 -12l-16 8l-84 -4l8 -12h-8v-112h8v16l16 -4v-8h20v8l-12 4h12v8h-12l12 12h-12c-9.33301 4 -14.666 12 -15.999 24l-12 -4v12h16l-16 4v8h12l8 -8l8 16l-16 4h28v8l-12 -4v8l16 4l-36 4l8 8l72 -4
    l-4 -12h16v28h-8zM56 872.001l-20 -16h12l4 8l48 -12l28 -16l-12 12h20l-8 8h-28l4 12h-12l4 -8l-12 -4l4 16h-32zM256 856.001l-8 -31.999h32v16c-8.66699 9.33301 -16.667 14.666 -24 15.999zM380 856.002l20 -8v8h-20zM624 856.002v-8h24l-8 -8h12l4 -8l16 4l-16 16h-24z
    M140 848.002l-12 -4l12 -8v12zM496 832.002v-20l28 4l-8 32h-8zM32 832.002h-7.99902v-84l12 -4h-8l4 -32l8 32l12 12v20c-2.66699 12.667 -9.33398 22 -20.001 28l8 36l-8 4v-12zM396.001 836.002h16v8h-20zM416.001 836.002l8 -8l-16 4l12 -16l16 12h-8l4 16h-12z
    M380.001 840.002v-8l-24 -20v-20l16 -4l4 8l32 -8l8 12l-4 12c-6 12.667 -16.667 22 -32 28zM84.001 836.002l-12 -20l20 -32l8 4v16h-8l-12 20c8.66699 6.66699 10 10.667 4 12zM568.001 832.002v-12l12 4zM664.001 832.002l8 -12h12v12l-8 -4zM112.001 828.002l-4 -68
    l16 -60l48 -68l24 -16v20l-8 4l8 24l-24 -8l-4 16l16 16l-28 -8l-4 16l16 16l-28 -4v12l16 12h-20v12l16 12h-20l-4 16l20 4l-24 20l16 8l-12 12v8c-2.66699 2.66699 -8 4 -16 4zM140.001 828.002c3.33301 -10.667 11.333 -17.333 24 -20v8h-12v12h-12zM424.001 816.003
    l-4 -28l12 12v16h-8zM160.001 804.003l20 -24v24l-12 -4zM600.001 804.003v-8h12l4 -12l8 12v-16l56 -36l8 16l-12 -8v16h-16l-28 12l12 4l-4 8l-8 -4v12l-24 4h-8zM560.001 800.003l-4 -20l32 -20l4 20c-15.333 12 -26 18.667 -32 20zM336.001 776.003l12 -8v8h8v-8h-8
    l-16 20zM24.001 788.003l20 -4l4 -20h-12l-8 -12l-4 28v8zM100.001 784.003l-20 -60l8 -4v16h16v8l-8 -4v8zM392.001 780.003l4 -24l-20 -4l24 -4v12h8l-4 -12h28l-4 32h-12l8 -12l-20 -4l-4 12zM652.001 772.003h16l-20 8zM260.001 776.003l-4 -24h20l-4 24h-12z
    M488.001 752.003l4 -8h24v12l-12 16zM184.001 768.003l12 -32l-4 32h-8zM600.001 768.003l-4 -16l20 -12l4 20l-8 8h-12zM628.001 748.003v-20l8 -8l8 4v20zM656.001 732.003v-28h8l4 20zM92.001 720.003l24 -24v12l-12 8l4 12zM196.001 728.003l12 -44l-4 44h-8z
    M340.001 728.003v-40l12 -8l8 48h-20zM400.001 728.003c0.666992 -28.667 6 -43.333 16 -44v32l8 4v8h-24zM676.001 716.004l-4 -24l12 -4v28h-8zM320.001 712.004l-4 -32l16 -8l-4 40h-8zM36.001 704.004l12 -44l4 44h-16zM260.001 704.004v-16l16 4l-4 12h-12z
    M496.001 704.004l-4 -16h12v16h-8zM696.001 700.004l-4 -24h8l4 24h-8zM60.001 692.004l-4 -12l16 -4v-12l12 4c-2.66699 11.333 -10.667 19.333 -24 24zM120.001 692.004v-32l16 4l-12 20zM532.001 668.004l-8 -20l16 -8l12 -44l24 -12h16l8 -16l4 -48l36 -36l-16 -44
    l20 -56l-12 -12l20 -4c10.667 10.667 16 24 16 40l-24 28l20 60c-4 10.667 -13.333 18.667 -28 24l-12 12v44c-4 14 -14.667 23.333 -32 28c-18.667 3.33301 -28 15.333 -28 36c-3.33301 16.667 -14 26 -32 28zM564.001 660.004h12l-12 -8l20 -4v12l-8 8h-16z
    M68.001 660.004l-12 -12l4 -12h12l-4 -12h8v20l-12 -4l4 12l8 -8l4 12zM132.001 636.004l28 -4l-20 12zM208.001 644.004v-8h124l4 8h-128zM524.001 640.004l4 -16l12 4l-4 8zM608.001 636.004l-4 -20h-8l20 -8v16zM80.001 608.004h12l-4 20zM96.001 612.004v-16h32v8z
    M172.001 604.004v-20h8v12h12v8h-20zM616.001 604.004l12 -8v-24l20 -4v12l-12 4v20h-20zM512.001 600.004v-15.999l12 -8l-8 -24l24 8l4 -12l-16 -16l8 -4l20 8l4 -12l-16 -12v-8l28 4l-20 -24h24l4 -12l-16 -4l-4 -8l24 -4c-3.33301 -10 -11.333 -15.333 -24 -16l20 -12
    l4 -12l-12 -4l24 -28l4 72l-8 48l-12 28l-44 52c-4 9.33301 -12 14.666 -24 15.999zM108.001 580.005v-8h16l-4 -12l20 -4l-4 -12l16 8h-8v12l-16 8l12 -4v12l-24 -4zM572.001 560.005v8l12 4l-24 8zM632.001 568.005v-28l44 -36l-4 28l-8 -4v20h-8l4 -8h-24v16l16 4l-12 4z
    M264.001 548.005l136 -4l8 -12v-264l-64 16l-52 -4l-40 -12v24l44 8h88l20 -8v8l-80 16l-60 -12l-12 -8v240zM268.001 536.005l-4 -24l16 -4l4 36zM320.001 544.005l4 -52l16 4v48h-20zM424.001 548.005h51.999v-148l24 -60l20 -32l24 -20l16 4l-56 -28l-8 -12l12 -8v-16
    l-16 20l-8 -4v-16l-20 -44l12 -16v-56c-4 1.33301 -6.66699 20 -8 56l-16 16h-12l12 -52l-4 -32l-16 -36h12l16 16l-4 -20l16 -60l-340 4l40 84l-4 36l8 -4l4 -28l-8 -28h140l12 52v-52h16l8 28v56l8 -4v-80h16v104l-28 24l116 -4l20 40
    c-1.33301 10 -6.66602 16.667 -15.999 20v-20l-20 -32l4 24l8 4v20l-16 4l-4 -36l-16 -12l8 12v36h-16l-4 -32h-8l8 20c-4 8 -10.667 12 -20 12l4 -20l-12 -16h-20v20l4 -16h12l8 8l-8 24h-16l8 8h56v292zM12 540.005l-4 -20l8 -4l4 20zM156 532.005l12 -4v12h-8z
    M380 540.005v-32l12 -4l4 24l-8 12h-8zM588 520.005l8 4l-8 16v-20zM212 532.005l-4 -16l8 -4l8 16zM296 532.005v-28l-8 -16h16v44h-8zM356 532.005v-32l-8 -12h16l4 44h-12zM28 528.005l-4 -24l8 -4l8 24zM440 528.005l4 -16l12 4v12h-16zM608 500.005h-8l4 -20l4 16h12
    l4 -20h-12v-72h24l-20 44l4 20l12 16l-32 28zM48 512.005l-4 -20l12 -8v28h-8zM668 500.005l4 -23.999l-8 -8l16 -4l-16 -12h20v-20h-12c-7.33301 1.33301 -11.333 6.66602 -12 15.999l-4 -16l24 -24v-24l-8 -4l12 -4v120c-2.66699 2.66699 -8 4 -16 4zM68 496.006v-24
    l12 -4l4 20l-8 8h-8zM92 476.006v-24l16 -8l4 24l-8 8h-12zM204 448.006h12l8 24l-20 4v-28zM276 400.006h16v28l8 8h16v8h-20v12h52l-8 8l-56 -4v12h-8v-72zM436 464.006l8 -24h8v8l8 4l-4 16zM44 460.006v-20l12 16zM352 460.006l4 -12l-16 4v-8l20 -4v12l12 4h-8z
    M124 456.006l-4 -24l32 -20l4 16l-28 24zM60 452.006v-12h12l-8 -12h16l4 8h-8zM368 448.006v-32h16v28c-2.66699 2.66699 -8 4 -16 4zM296 420.006l8 -28l12 -4l4 -12l24 12l4 12l8 4v20l-24 -4l-28 8zM88 412.006l20 4l-12 8l-8 -4v-8zM548 416.006l-12 -16h24l-4 4z
    M104 408.006l12 -8v8h-12zM360 400.006h12l-16 -4v-12l-16 -4l32 -4l-8 -8l-20 4l-16 -12h-16l8 4v8h-8c-0.666992 10.667 -8.66699 16 -24 16l12 4l-20 4l-4 -56h16l8 8l-16 4h84l4 -8h-16l28 -4v20l-16 4h16l-8 4l8 16h-12l4 8l8 -4v8l-8 4h8v8h-20zM188 396.006l8 -24
    l16 4l8 24l-28 4zM32 400.006l-8 -16h8l4 -8h16v12l-12 -8v16zM436 396.006l-4 -12l20 -24l16 32l-8 8zM136 392.006l8 -8v8h-8zM564 372.006l8 -4v12l16 -4v-8h-12l28 -16h24v-8l20 8l4 8l-24 4l-8 -8l-36 28h-20v-12zM308 376.006l-4 -8l-20 4l8 8zM72 372.006l8 -24h12
    l-4 16l-8 -8l4 12zM652 352.006l24 8h-20zM16 360.006h8l-8 -24l8 -4l-8 -4v-12l8 -4l-8 -16l20 -4l-20 -12v-8l24 4l-4 -8l12 -4v-8l-28 4l-8 16v76zM96 348.006c2.66699 -10 12 -18 28 -24l4 16l-24 4zM180 332.006v-20l12 -20l16 8v8l8 4v16l-16 4h-20zM332 324.006h16
    l-4 8h-16zM260 320.006v-8l32 12zM448 316.006l-4 -16l36 -20l-8 44zM60 284.006l12 -4l-24 -4zM120 260.006l-20 -4l8 -16l-16 12l-28 4l-24 -24l4 -28l16 -16l16 4v16h-12l-4 20l20 8l12 -16l-28 -68l-8 8l-20 60l16 40h68zM68 220.006l12 -4v12h-8zM108 216.006v-19.999
    l-16 -52l20 -56l-16 24l-20 4l-4 -16l12 -4l8 -20l-16 -12l-16 16c31.333 77.333 47.333 122.666 48 135.999zM52 188.007l4 -20h12v16zM216 192.007c10.667 -0.666992 17.333 -6 20 -16l-8 -4l4 12l-40 -8v8l24 4v4zM403.999 180.007l12 -28l4 -52l-12 -36l20 4l16 52v32
    c-4 18 -14.667 30 -32 36zM339.999 188.007l-4 -12l-8 8zM375.999 184.007l-3.99902 -12c9.33301 -9.33301 14.666 -24 15.999 -44l-8 -64h20l8 24l-4 80l-8 12zM80 124.007l16 -8l-4 24zM216 124.007l-4 -12h12v8h8l4 -12l-48 -12l12 32zM44 64.0068l16 -16h-8l-16 24l8 32
    v-40zM252 88.0068l-16 -12l-52 -4l12 16h48l4 8zM68 88.0068v-12h12v12h-12zM108 76.0068l4.00098 -11.999l-20 -16c7.33301 5.33301 12.666 14.666 15.999 27.999zM160.001 40.0078l-4 -12h60l32 -12l32 8v8l20 4l-84 4h-56zM316.001 32.0078l24 -4l12 12h-32z
    M356.001 40.0078l4 -12h-16l4 -8l32 4l-16 4v12h-8zM368.001 32.0078l48 4l-44 4zM436.001 36.0078l20 -20v20l-16 4z"
  />
</svg>
