<svg
    xmlns="http://www.w3.org/2000/svg"
    version="1.1"
    width="712"
    height="1216"
    fill="#fff">
  <path
    d="M312 1212h8.00195l-24 -44l32 40l12 4l-32 -40l24 8l24 32h8l-12 -24l-12 -8c-18.667 -1.33301 -29.334 -10.666 -32.001 -27.999l4 -8h36l8 -16l-12 12h-36v-16l28 4l16 -12l8 4v-20l-56 4l8 -68l36 -68l-4 -4l-4 8l-40 -28l-36 -36l36 -16l28 16l32 -8l4 12h20l-4 -16
    l24 12l36 -4l8 16h12l-4 -12l-12 -4l16 -4l4 8l36 12l16 -4l-4 16h-16l8 4l-12 52l-48 -32l-40 -16h-36l-4 8h52l68 44l4 92l-28 52c-6 20 -22 33.333 -48 40l-16 4l-24 32l72 -44l-8 12l-40 28l12 4l20 -16l-4 16h32l40 -64l120 -124l32 24l-28 84l16 80h8l-20 -48l8 -72
    l20 -32v-12l-24 -16c-10 -10.667 -15.333 -24 -16 -40l8 -20l72 -56l8 -16l-44 28l-112 108l-68 92l40 -76l56 -72l116 -116l8 4l4 -180l-84 56l-72 12c5.33301 13.333 17.333 22.666 36 27.999l28 24h16l40 40l-132 -80l-176 -120l-36 8l24 108l4 -12l24 8l-20 20l-4 -8v32
    l12 4l-4 -16l24 4l-8 8h32l12 -12c0 -6.66699 4 -10.667 12 -12l24 28h-12l20 4l-96 -104l-8 -16l148 124l-8 4l136 28h-64l-104 -20v12l76 16l-20 4l16 12h16v8l-68 -12v-20l-100 -8l4 12l64 4l-4 16l92 20c-11.333 12 -28.666 18.667 -51.999 20l-32 -24l-48 12l-20 -16
    h-20l-32 16l-16 -4l-4 -8l-36 -4l-24 20l-32 -28l68 -8l-12 -12l-72 12l12 -16l-24 -4l72 -12l-4 -12l-104 16v-12l72 -12l-12 -4l48 -104l8 -4l-32 96l8 -8l16 8v8l72 -4l-20 -112l-8 -4l8 116h-40l8 -12l16 -8v-12c-8 -0.666992 -13.333 -6 -16 -16l16 -4l4 -12l-8 -76
    l-60 12l-72 24c7.33301 -13.333 20.666 -21.333 39.999 -24l152 -40l100 -12l32 -64l36 -40l132 -84h-12l4 -76l-44 8l8 -12l-20 4l-4 44l-36 -20l4 -16l-12 8l-40 -28h-8l-4 -80v68l-24 -12v-72l-48 -140l52 100l-56 -132l-8 -80h-8v36l-24 -36l20 44l-32 -44l-12 4l36 40
    l-32 -16l-16 -28h-8c6 20 20.667 33.333 44 40l12 12v12l-40 4l-4 8l44 -4l-4 16l-52 8v40l12 28l-40 8h20v12l24 -16l-12 -52l52 -4v44l-8 28l-44 76l-16 8l-64 -16l-48 -32v-100l8 -4l20 -40c3.33301 -15.333 12.666 -26 27.999 -32l40 -16l16 -28l-8 4
    c-6.66699 14 -18.667 23.333 -36 28l-24 12l16 -24l28 -12v-8h-8l-16 16h-12l12 -16h-12l-8 8l-4 -8h-12l-84 120l-76 68l-28 -28v-8l-8 8l8 12c16 5.33301 26.667 17.333 32 36v28l-84 64v8h8l100 -88l64 -68l52 -84l12 -8l-20 44l-92 132l-116 112l-8 -4v92l20 -8l-20 16
    l4 80l40 -36l56 -28l56 -4l-32 -28l-36 -20l-24 -4l8 -8l-40 -28h20l88 64l188 120l4 8l44 -4l-20 -96l-28 -8l16 -20l4 -24l12 8l16 104l8 4l-8 -116h12v32l8 -4l12 8l-4 12l-12 4l4 88l76 -16l52 -20v8l-84 32l-200 32l-48 80l-64 60l-100 52h20v24l12 -4l32 8v8l-16 4
    l16 4v20h-12l8 12l-40 16v8h32l-4 -8h-12l4 -8l36 -12v-40l40 20l-8 16l20 -8l68 52v68l48 144l-20 -32l16 36l20 100v-28c14 12.667 22 24.667 24 36zM484.002 1212h28l12 -20l24 -16v32h8l4 -40l60 44l-4 -12l-44 -36l20 -16l20 -4h-40l12 -36l48 -52h-12l-28 24
    c-14 5.33301 -23.333 16 -28 32l-12 36l-52 36l-8 16zM432.002 1144l8 -8l-64 8h56zM404.002 1124l36 -4l4 -20l-52 -4l-8 12c8 2 14.667 7.33301 20 16zM292.002 1104l-24 -108l4 -60l48 32l12 16l-32 64l-4 52zM492.002 1072v-48l16 -72l20 -32l48 -44l40 -16l64 -4l-8 16
    h-32l-52 16l-28 24l-24 40v12l32 -44l16 -12c8.66699 -13.333 22 -21.333 40 -24l36 -4l-16 20h-12l-44 20l-28 44l44 -48l24 -8l-128 160zM352.002 1044h36l-20 -4l4 -12l-28 24zM400.002 1008v-12h-56l-4 8zM76.002 972l3.99902 -52l28 -20h68l-8 -8h-32l8 -8h-36v-8h-16
    l-4 12h-40l-8 -12v-24c-10 6 -15.333 16.667 -16 32c6.66699 11.333 17.334 18 32.001 20l8 4l20 -8v8l-12 12l-48 4v48h52zM28.001 968v-12h12v12h-12zM56.001 968v-12h16v12h-16zM44.001 952l-4 -12h16v12h-12zM28.001 936v-12h12v12h-12zM56.001 936v-12h16v12h-16z
    M288.001 912h16l-4 -12l-16 4zM324.001 868h92l4 -8l-100 -4zM248.001 856l104 -8v-12h80v-12l-132 -4l-56 24zM44.001 852l28 -4l-24 -4l4 -12h24l-28 -8v-12h12l-16 -8v48zM80.001 756l68 36l8 16zM52.001 792v-12l36 20zM268.001 796l-8 -12l16 -16l12 4l8 12l-12 4z
    M392.001 796l-28 -15.999l12 -16l36 8l4 8c-3.33301 7.33301 -11.333 12.666 -24 15.999zM176.001 780.001l-51.999 -32.001l-8 -12h12l56 36c-2.66699 4.66699 -5.33398 7.33398 -8.00098 8.00098zM256.002 776l4 -20l12 -4l4 12l-12 12h-8zM0.00195312 776l16 -4v-20
    l16 12l56 -28l-4 -260l-32 16l-20 32l-4 -8l-28 16v244zM176.002 756c12 -8.66699 18.667 -20.667 20 -36l-12 -8v-8l52 -16c-1.33301 14.667 -8 26.667 -20 36l-24 40h-12zM396.002 764l-12 -12l4 -8l24 20h-16zM132.002 736c2.66699 -10 10.667 -18 24 -24l16 -4l-12 20
    l16 28zM280.002 756l-8 -12l8 -8l16 12zM368.002 752l-16.001 -12l4 -8l28 8c-3.33301 6.66699 -8.66602 10.667 -15.999 12zM28.001 672l8 4l4 44l-8 16zM176.001 740l-8 -16l16 -8l4 20zM344.001 740l-4 -16c6.66699 0 10.667 4 12 12zM596.001 740v-252l-24 12l-56 48
    l-32 48l-12 44v52l28 40l28 8h68zM524.001 736c-18 -5.33301 -31.333 -17.333 -40 -36l-8 -40l12 -60l40 -56l52 -44l12 12h-16l-8 8l24 20h-52v20h16l-24 20l4 8c0 6.66699 -4 10.667 -12 12l4 -20l-16 -4l-4 20l16 4l-12 16v16l-8 -16l-16 12l16 12v20l12 8l-4 16l8 20
    l32 -8v12l28 28h-56zM528.001 732l20 -4v-8l-20 -8v20zM608.001 732l40 -16l20 -32l4 12l24 -16v-248l-88 44v256zM100.001 724l84 -64l40 -72l4 -64l-36 -48l-32 -12l-56 4l-8 8l4 240v8zM344.001 712l16 4l-12 4zM576.001 708l12 -8l4 12l-8 4zM108.001 712
    c0.666992 -10.667 7.33301 -17.333 20 -20l-16 -16v8l-4 -12h16l16 -16v16c12 0 18.667 -6.66699 20 -20l-20 4v-8l16 -8l8 -12l-4 -12l24 -16l-4 -24l12 -4l-4 20l12 4h-8l16 -8v-12l-16 -4v-20l-12 -8l4 -24l-8 -12l-24 4l-28 -16v-16h-8l8 -8h40l-12 8v16h20l-8 -20l24 8
    c14 6 23.333 18 28 36v68l-28 56c-45.333 41.333 -72 64 -80 68zM560 704.001v-8h12l20 -16l-16 24h-16zM332 696.001v-12l12 8v8zM456 704.001h8l-4 -68l-84 8c46 32 72.667 52 80 60zM528 696.001l-8 -16v-24h-8v-12l16 -16l-4 -20l16 -8l4 -24h16l8 -28h24v12l-12 -4
    l-8 24l-20 4v24l-20 4l4 24l-12 4l-4 12l16 16l-8 4v12l28 -4l4 8l-12 4zM444 688.001l-8 -12l16 -12v24h-8zM508 692.001l-4 -20h-12l-4 16zM560 676.001l-24 -4l12 -8l-20 -20l12 -8l8 4l-4 8l24 24l24 -4l-28 16zM396 656.001l16 -12h12l-4 16l8 12zM108 664.001l-4 -12
    h16l8 -8v-16l20 -4v-24h16v-16l12 -20l-4 -12h-8l4 -28l-28 4v-8l28 -8l8 4l-4 20l16 28l-16 12v28h-12l-8 32l-16 4l-8 24h-20zM432 664.001l-4 -12l8 -4l4 16h-8zM572 664.001l-12 -8v-40l32 -28l-4 12l-16 8l-12 28l4 16l28 8zM440 648.001l4 -8l8 4l-4 12zM240 624.001
    l4 -20h12l-12 24l12 16l-32 4zM664 636.001l-12 -20l4 -28l8 -12l4 8zM108 644.001l-4 -12l16 -8l-4 20h-8zM24 564.001l8 4l12 44l-12 20zM268 636.001l8 -12l-8 -20l24 -4l12 32l-16 4h-20zM188 628.001l-4 -12l-16 4l4 12zM256 632.001v-20h12v16zM316 628.001
    l3.99902 -20l-8 -8l32 -8l-8 24h8c-5.33301 5.33301 -14.666 9.33301 -27.999 12zM103.999 620.001l24 -24l8 -20l-16 -24h12l12 12l-4 20c-3.33301 20 -15.333 32 -36 36zM123.999 620.001l16 -16v16h-16zM303.999 620.001v-16h8v16h-8zM355.999 620.001l8 -12l-8 -20
    l24 -4l4 32h-8zM347.999 616.001v-20l8 4v12zM399.999 612.001l4 -16l-8 -16l32 -8v36l-16 4h-12zM387.999 604.001l-4 -12l8 -4l4 16h-8zM435.999 600.001l-4 -20l8 -4l8 16zM451.999 580.001h-8v-16l28 -4l-16 28zM143.999 592.001l4 -16l12 16h-16zM575.999 580.001
    l12 -12l4 12l-8 4zM151.999 572.001c-4 -19.333 -14.667 -30 -32 -32h-12l16 -8v-8h8l4 12l24 -4l-8 20l12 16zM239.999 576.001l80 -8l-4 -12l-84 -48l4 60zM275.999 544.001l24 12l-24 12v-24zM259.999 560.001l-4 -12l8 -4l4 16h-8zM247.999 544.001l-4 -24l16 8
    c-0.666992 6.66699 -4.66699 12 -12 16zM663.999 540.001l-12 -36l12 -36l4 64zM195.999 540.001l11.999 -4.00098v-16l-16 -4l-4 16c2.66699 0.666992 5.33398 3.33398 8.00098 8.00098zM103.998 528v-8h12c2 -10 8.66699 -15.333 20 -16v12h-12l-8 12h-12zM451.998 528
    l16 -32l12 -4v-8l28 -28v-12l56 32l-4 12l-36 16v-8h8l4 -12l-20 -28l-12 12l-4 24l12 16l-52 20h-8zM339.998 524l-12 -16l-152 -120l-108 -24l48 -4l116 24v-16l80 4v-12l-28 -4h92v-12l-96 -4l-4 8l8 4l-8 8l-68 -12v16l-48 -8h20v-12l-28 -8l44 8l56 -4l-92 -16
    c2 -10 10 -16.667 24 -20l28 -4l20 20l60 -8l16 16h28l20 -16l40 16h20l32 -20l4 8l24 12v8l-72 8l12 12l60 -8v12l8 8h-32v-12l-108 4v20l-76 -4l-4 12l132 4l-4 -16l36 -4v16l108 -16l4 8l-56 16l-132 12l-116 -8l112 124h-8zM399.998 524v-12l8 -4zM415.998 516l16 -56
    l-12 -8l16 -16l8 8l12 -40l16 -4l-8 36l-40 76zM103.998 496h20l-12 16zM335.998 492h16l-4 8h-8zM515.998 496l-8 -16l12 -12l8 20zM319.998 480h8l4 12zM395.998 488v-16l12 12zM343.998 476l12 -4v12h-8zM311.998 472l4 -12h16l12 8l-4 8zM407.998 472l-4 -12l12 -4l8 8
    l-4 8h-12zM303.998 468l-20 -24l32 8c-0.666992 6.66699 -4.66699 12 -12 16zM591.998 448l-52 -36h-8v-8h8l76 52zM315.998 448l-36 -12.001l20 -24l32 16c-0.666992 8.66699 -6 15.334 -16 20.001zM407.998 439.999l-8 -12l28 -12l8 8c-6 10.667 -15.333 16 -28 16z
    M271.998 431.999c-10.667 -3.33301 -18.667 -12.667 -24 -28l44 4c-5.33301 12 -12 20 -20 24zM615.998 419.998h24l4 12zM19.998 423.998l32 -12l-28 16zM391.998 423.998v-16h20c-2 8.66699 -8.66699 14 -20 16zM319.998 411.998h16l4 8zM443.998 419.998l-12 -8l4 -8h16
    v12zM619.998 411.998l-16 -12l44 4v8h-28zM607.998 395.998v-24l40 -4v12h-20l20 4l-4 16zM655.998 363.998l16 -16v-24l-12 -12l-44 -4l4 -12l52 -4v-52h-48v36l-24 28l-4 16l-32 -12h-52v12l32 12l24 -8l20 4v8l44 8l-12 8l8 4l8 -8h12v-12l-40 -4l4 -8h32l16 16l-4 16v8z
    M15.998 347.998l28 -12h32l60 -36l28 -48l8 -40l-32 72l-28 24l-48 24l-28 -4l16 -16l52 -16l20 -20v-8l-56 36l4 -12l64 -64l8 4l4 -20l52 -64v72l-12 40l-40 56l-60 36l-68 4zM519.998 323.998l-4 -12l28 8v8zM311.998 319.998l-12 -16l-20 -4l-24 8l4 -8l-20 -8v16h12
    l-16 4l-8 -12l-16 -8h-32l8 -12h12l-8 -4l12 -52l88 48h20c16 0 32 -10.667 48 -32l72 56l-16 20l-24 4l-20 -16h-24l-4 8h-8l-12 -12l-12 4v8l16 8h-16zM391.998 311.998h20v-12h-20v12zM623.998 287.998l4 -12l12 4v8h-16zM655.998 279.998l8 -4l4 12h-8zM387.998 251.998
    c-11.333 -4.66699 -18 -14 -20 -28l28 -48l12 -52l16 92v64zM643.998 275.998l-4 -12h16v8zM623.998 255.998v-12l16 4v8h-16zM655.998 255.998c0 -6.66699 4 -10.667 12 -12v12h-12zM295.998 219.998l40 -8l20 4v-8h-60v12zM55.998 159.998l36 -12l40 -36l16 -40l20 -24
    l32 -24l12 -24h-24l-12 20l-24 16l-8 -36l-8 44l-12 -4v-8h-8l-20 -28l-16 -4l48 56l-44 12h40v16l-16 28l-40 40zM79.998 87.998l-4 -48l-16 -40l-4 8l16 40l4 36l-12 36zM307.998 115.998l4 -12l-20 -12h-36l-4 24h56zM259.998 75.998l56 -4l4 -8h-48z"
  />
</svg>
