<svg
    xmlns="http://www.w3.org/2000/svg"
    version="1.1"
    width="712"
    height="1216"
    fill="#fff">
  <path
    d="M208 1208l20.001 -7.99902l4 8h28l8 -8l60 8l96 -8l44 8l40 -8l32 8l-24 -64l-8 -8l16 -56l8 -84l12 -4l8 -28l-12 -12l68 -48l12 224l16 12l16 -12l12 -264l24 -16v-160l-32 4l-16 12l-56 -12l-12 20c-10 -0.666992 -16.667 -6 -20 -16c4 -12.667 13.333 -20.667 28 -24
    l104 4l4 -8l-12 -4v-72l-8 -4c-13.333 -4.66699 -20 -14 -20 -28l-8 -220l48 8l-180 -88l-8 -12l-4 20l-44 4l20 16l-24 -4l-20 -16l8 16l16 12l-20 -4l-24 -24l12 24l-28 -20l4 12l-28 -4l-16 20l4 -12l-24 12l8 -24l-8 16l-28 12v-8l24 -12l4 -12l-8 12l-28 8l-20 -16v-12
    l32 -8v16h-16l16 4l4 -20l-28 -8v-12l-8 28l-32 20l-16 -8v-20l16 -12h-12l8 -112l-12 108h-12v-88l-12 80l-16 -4l8 -84l-12 80h-12l4 -96l12 -40l16 -4l-4 12l16 -12h56l-8 12l-8 68l4 40l4 -88c4 -21.333 12 -32 24 -32l-4 52l16 -48l8 -8h136l8 20l-8 32l-32 -8l-28 16
    l8 -28l52 4l-8 -12l-40 -4l-16 32v24l20 48l-12 4l-8 16l28 -20l-24 -60l64 4l4 84c0.666992 19.333 8.66699 30 24 32l-16 -24l8 -8h20l-12 -8l-4 -72v72l-8 4l-12 -112l8 -44l32 -72l-20 16h-12v-12h-28l4 8h-44v-12l-24 12h-56v-12h-20v12l-56 4l-4 -12h-20l4 8l-56 4
    l24 60l-24 148l-12 4v32l8 12l-72 44l-4 20l8 188h28v-16l20 -4l8 20l-8 12l-44 8l76 56c-0.666992 8 -6 13.333 -16 16l-8 -16l4 -4h-12l20 28l12 -8l8 -16l8 4c-2 9.33301 -8.66699 16 -20 20v8h-8l-32 -28l-4 8l40 28l32 -32l12 4l-16 16l-40 16l-4 -8l-32 -16l4 -12
    l-16 8l-16 20l-4 16l-44 -28l4 -8h-8l-4 -12l44 4l-24 4h36v-16l-8 4l8 -8v-28l-20 -4l4 8h-36l-4 -12h12l8 -12l-48 -4l4 24l4 -16h12v72l24 16l4 208l8 32h-12l-44 -20v12l64 24l128 64v16l4 -20l12 -12h28l16 24l4 -8l-24 -24l8 -4l28 24l-8 -20l-16 -12l20 4l16 24v-20
    l40 12l20 -20l-8 20l28 -28l-4 24c4 -12.667 14.667 -20.667 32 -24v8c-10.667 1.33301 -18.667 6.66602 -24 15.999l32 -12l20 12l-4 20l-16 8l-12 -8l4 -12h12l-16 -4v24l20 4l4 16l-8 132c-6.66699 13.333 -17.334 20 -32.001 20h-124v-32h8v8l48 8l12 -28v-36l-16 -28
    v-16c10.667 -0.666992 16 -6 16 -16l-24 16l20 60l-56 -4l-8 -24l4 -48l16 4l4 -16l20 12h12v-8l-8 -4l12 -8h24l-4 16h12l16 -12l20 4v12l-12 -4l12 8l4 -20l-24 -8l-16 4l4 -16l-20 8h-28l-4 -8v16h-24l-20 12l-8 -28l-24 -8l20 8v20l-20 4l8 12v72l16 76
    c-18 40 -27.333 61.333 -28 64zM364.001 1184l-32 4l-12 8l-52 -12l-24 12l-16 -16l292 -4l4 8l-44 8l-52 -8l-40 16zM236.001 1168v-8l276 4l-268 4h-8zM400.001 1136l12 -60.001v-72l12 -56l28 -16l12 12v20l-20 4l-4 -8c-14.667 116.667 -28 175.334 -40 176.001z
    M424.001 1136l12 -40l4 -124h20l-8 88l-16 76h-12zM448.001 1136l20 -160l16 4l-4 100l8 -88l16 -4l-4 92l12 -88h12l-12 124l-20 16v-12l-8 12l-12 4l-8 -8l-8 8h-8zM608.001 696c10 0.666992 18 6 24 16v164l8 48l-16 96l12 88l-4 20zM236.001 1116l-8 -24v-28l8 20v-20
    l8 8l-4 40zM320.001 1120l60 -4l12 -12v-8l-64 12zM248.001 1100v-16l36 8l16 -8l8 8l-48 12zM400.001 1076l-8 -12l-56 4l24 20zM312.001 1020l24 -8l4 8v-12l-28 4v8zM520.001 988l16 -28l8 20l-8 12zM508.001 976l4 -24l8 4l4 20l-8 8h-16zM484.001 976l8 -12v-16h8v28
    h-16zM468.001 972l4 -28h8l4 24zM524.001 948l-36 -12l-60 -112h-24l12 -12l20 4l56 52l40 76zM304.001 924l-40 -20l8 -28l120 -8l8 20h8l4 20l-44 -12l-44 16l-8 12h-12zM168.001 920l-4 -36l8 -8l36 20v20l-24 -4v8h-16zM572.001 912v-24l12 16l-4 8h-8zM244.001 908
    l44 -92.001l44 -140l-8 56h60l24 12l-76 16l-16 -16l-24 80l-32 64c-0.666992 10.667 -6 17.334 -16 20.001zM532.001 899.999l-20 -40h12v8l20 -8l-4 -16l8 -4l24 48l-28 -8l-4 20h-8zM68.001 887.999l60 -16l-4 -12l-4 16l-16 -12l4 16h-8
    c-10 -7.33301 -15.333 -19.333 -16 -36v-116l8 4l8 68l16 -4v56l4 -56l12 -8l8 72v-60l12 4v60l72 -52l40 -44l52 -92h8l-16 36l-64 92l-56 52l-72 32h-48zM224.001 867.999v-28l28 8v16h-16zM160.001 855.999v-48l12 -8l4 12l4 -24l12 4v44l-16 4
    c-2 6.66699 -7.33301 12 -16 16zM408.001 855.999l-116 -4l-8 -8h124c2.66699 5.33301 2.66699 9.33301 0 12zM444.001 815.999l-60 -24l44 -16l36 20l8 44zM500.001 839.999l-12 -48l8 12h16l4 -24l16 48h-12v-8l-12 4l4 12zM200.001 827.999v-36h8l4 28zM304.001 819.999
    l-4 -16l44 -12l-32 -4l-4 -8l8 -16l88 4l4 8l-32 12h-20l56 16v8l-80 12zM264.001 811.999v-12l12 4c-2 4 -6 6.66699 -12 8zM216.001 807.999v-56c0 -12 5.33301 -24 16 -36l4 80c-5.33301 6 -12 10 -20 12zM156.001 803.999l-16 -16l20 -20l12 24
    c-2.66699 3.33301 -8 7.33301 -16 12zM104.001 791.999l8 -20l16 -16h8l12 -60l-12 -4l-8 8l-40 12l-8 -36l8 -36l72 28l64 -28l8 4v64l-60 -12l12 56l-32 8l-4 16c-14 10 -28.667 15.333 -44 16zM192.001 787.999c-14 -2.66699 -23.333 -12.001 -28 -28.001l16 -4
    c12.667 0.666992 20.667 7.33398 24 20.001l4 12h-16zM384.001 759.998l24 -16h24l24 12l4 32zM100.001 771.998l0.000976562 -24h12l8 8c-2.66699 8 -9.33398 13.333 -20.001 16zM196.002 759.998c0.666992 -8 6 -13.333 16 -16v28zM476.002 771.998l4 -40l12 8l12 -4
    l8 -12l4 44l-28 -12v12zM388.002 727.998l24 -20h12l32 16v24zM244.002 735.998v-8h32v8h-32zM328.002 727.998l4 -28l68 4l4 8l-32 12l-36 4h-8zM248.002 719.998l-4 -16h48v8l-36 4zM448.002 715.998l-68 -20l16 -16h32l24 8c0 18 -1.33301 27.333 -4 28zM508.002 703.998
    l-8 -16h-12l-12 12v-48l16 16h12l4 -16l8 16v36h-8zM264.002 695.998l-20 -8v-8h64l-4 8l-28 4zM336.002 695.998v-16l56 -8v8c-9.33301 10 -24 15.333 -44 16h-12zM388.002 667.998l16 -20h48l4 36zM340.002 671.998l-4 -20l-12 -4v-16l16 -8l-16 -4l-12 16l-24 -16v-16
    l32 -12l4 16h8l8 -16h-16v-16l12 -4l-4 -12l16 -8l4 20h8l4 16l-16 8l12 12l4 -16l32 8l8 16l-8 8l-12 -4l-4 12h-16l-4 -12l-12 4c10 4.66699 15.333 12.667 16 24l-8 4l-4 20h-12zM244.002 651.998l36 -4l12 8v8l-44 4zM536.002 619.998l24 -4l-24 -28l-20 28l-8 -4
    l28 -32l36 32l16 -8l24 -28v-8h16l40 40h-44l8 -8h-20v52l36 4v12h-52zM100.002 639.998l-4 -12l12 -8l52 32l52 -32l8 16l-64 24zM636.002 651.998l32 -4v12zM240.002 643.998v-12h36l8 12h-44zM412.002 643.998v-12h44v8l-36 4h-8zM624.002 631.998h44v8l-36 4z
    M476.002 631.998v-32l40 20v12l-28 -12v8zM624.002 615.998h44v8l-36 4zM184.002 595.998l-4 -20l12 16l16 -4l12 28zM528.002 615.998l8 -20l16 20h-24zM492.002 603.998l8 -16l40 -20l44 32l-12 4l-28 -28h-12l-32 32zM28.002 599.998v-12h44v8l-36 4h-8zM484.002 595.998
    l-12 -16l64 -28l64 24v12l-12 4l-56 -28l-40 28zM28.002 583.998v-12h40v12h-40zM240.002 583.998v-12h48l-4 12h-44zM412.002 583.998v-12l44 4l-4 8h-40zM468.002 575.998l-12 -44l4 -24l52 12v-60l-28 -28l24 -4l24 16l-4 12h16l-4 -8l8 -8c10.667 -10 24 -15.333 40 -16
    l-4 12c-4 12 -13.333 20 -28 24l-8 64l60 -20l8 20v28l-8 20l-76 -24l-60 24zM180.002 567.998v-68l4 12l28 12l-4 -12h12v48h-8l-4 -16l-20 4v16zM240.002 531.998l72 12v8l-16 8v8h-52zM404.002 563.998l-12 -20h60v20h-48zM304.002 539.998
    c2.66699 -9.33301 10.668 -16 24.001 -20l-12 -4v8l-24 12l-52 -12v-24l56 12l-4 -8l16 -8l60 -8l16 -44l-24 8h-48l-28 20l-40 -12l-8 -24l8 -4l28 8l-20 -12c-12.667 -1.33301 -19.334 -8 -20.001 -20l-8 -32l32 28l28 8l-4 -8l24 -8h100l12 -40l32 -52l-64 164l-12 68
    l32 -64l52 -60v-8l52 -44l68 -32h36l-52 12l-32 16l-80 72l-68 112h-20l4 -28l-12 4l8 4l-4 20l-28 4zM388.003 535.998l8 -16h56v16h-64zM40.0029 523.998l24 -16l8 12h8c-15.333 -8.66699 -23.333 -24.667 -24 -48l8 -88l-12 -116l12 -92l-8 -84l12 -4l4 48l4 -44l-12 -12
    h-12l-16 16l-8 244c-0.666992 17.333 -10 28 -28 32v152h40zM404.003 499.998l48 -4v12l-44 4zM244.003 495.998l-4 -32l52 16l-4 -8l64 -16l24 4l-4 20h-76l16 8l-40 16zM180.003 495.998v-48l24 12l12 -16l4 48l-12 -16l-20 4v16h-8zM456.003 423.998l24 -16v56l-16 32z
    M608.003 495.998l-12 -32l-4 8l-20 -8v-8l20 -16v-24l-12 4v-8l-8 12h-12l-4 -64v60l-12 -8l-4 -56h16l12 -12l4 8v-12h12l4 12v-16l16 8l8 28v120zM420.003 487.998v-8l32 -4v12h-32zM484.003 471.998v-28l16 20zM520.003 431.998l16 -20h8l8 24h-8v8zM384.003 439.998
    l8 -24l-40 4l32 8v12zM156.003 383.998l28 12l4 -24c10 2 15.333 11.333 16 28l8 16h-32v16zM296.003 435.998l52 -12l-44 -8l4 12l-20 4zM500.003 419.998v-40l12 -4l4 52zM484.003 423.998v-28l12 -8v36h-12zM416.003 411.998l4 -8h12v12zM520.003 415.998v-48l16 -8v48z
    M268.003 403.998l-43.999 -32l-64 -96l4 -8l16 4c15.333 0.666992 24.666 8.66699 27.999 24l56 92l24 8zM108.004 307.998l12 -4l4 24l28 4v-12l12 -4l16 32l-4 8l-4 -8l-24 12l4 16zM284.004 375.998l-48 -84h12l4 16l36 52l120 4v8l-112 4h-12zM460.004 375.998
    c-10 -2.66699 -16.667 -9.33301 -20 -20l32 -8v28h-12zM320.004 347.999c-13.333 -1.33301 -22.667 -8 -28 -20l-8 -8v-16l32 16l56 -20l12 -12l48 20l-12 36h-96zM508.003 335.999l-24 -16v-16l48 -4l-4 36h-20zM208.003 263.999l8 -20h8l-4 32zM196.003 267.999v-28h16
    l-8 8v20h-8zM176.003 263.999l-4 -28l20 -4l-8 32h-8zM156.003 255.999l-8 -16l4 -12l16 -4l-4 32h-8zM404.003 235.999l28 4l12 -8l-12 -16l-4 12l12 -8l-4 12l-28 -12l-12 4l4 16l-36 -4l8 -12l-40 12l-12 -4l8 -12l-12 12l16 12h28v8l44 -4v-12zM360.003 211.999l24 -12
    h-12l-8 8l-8 -4zM324.003 155.999l32 -8l4 -12l-52 -8l-12 12v8l24 4zM300.003 119.999l16 -8h48l8 -16l-12 8l-44 -4l-12 12zM184.003 59.999l-4 -12h276l-20 8h-244zM176.003 43.999l-8 -12h24l36 -12l44 12l28 -16l48 16l32 -16l32 12l36 -8l8 8h12l4 8l-284 8h-12z"
  />
</svg>
